<?xml version="1.0" encoding="UTF-8" standalone="no"?>
<!-- Created with Inkscape (http://www.inkscape.org/) -->

<svg
   xmlns:dc="http://purl.org/dc/elements/1.1/"
   xmlns:cc="http://creativecommons.org/ns#"
   xmlns:rdf="http://www.w3.org/1999/02/22-rdf-syntax-ns#"
   xmlns:svg="http://www.w3.org/2000/svg"
   xmlns="http://www.w3.org/2000/svg"
   xmlns:xlink="http://www.w3.org/1999/xlink"
   xmlns:sodipodi="http://sodipodi.sourceforge.net/DTD/sodipodi-0.dtd"
   xmlns:inkscape="http://www.inkscape.org/namespaces/inkscape"
   id="svg3004"
   version="1.1"
   inkscape:version="0.48.5 r10040"
   width="720"
   height="539.99875"
   xml:space="preserve"
   sodipodi:docname="notebook-composition.svg"
   inkscape:export-filename="/Users/anthony/Dropbox/Write the Docs/assets/2015/notebook-composition.png"
   inkscape:export-xdpi="90.000206"
   inkscape:export-ydpi="90.000206"><metadata
     id="metadata3010"><rdf:RDF><cc:Work
         rdf:about=""><dc:format>image/svg+xml</dc:format><dc:type
           rdf:resource="http://purl.org/dc/dcmitype/StillImage" /><dc:title></dc:title></cc:Work></rdf:RDF></metadata><defs
     id="defs3008"><clipPath
       clipPathUnits="userSpaceOnUse"
       id="clipPath3018"><path
         d="m 0,431.999 576,0 L 576,0 0,0 0,431.999 z"
         id="path3020" /></clipPath><linearGradient
       inkscape:collect="always"
       xlink:href="#linearGradient3902"
       id="linearGradient5946"
       gradientUnits="userSpaceOnUse"
       gradientTransform="matrix(0.2285933,0,0,0.2285933,72.837904,672.23026)"
       x1="530.63214"
       y1="829.70264"
       x2="528.43213"
       y2="987.70264" /><linearGradient
       id="linearGradient3902"><stop
         style="stop-color:#ad7878;stop-opacity:1;"
         offset="0"
         id="stop3904" /><stop
         style="stop-color:#a37f74;stop-opacity:1;"
         offset="1"
         id="stop3906" /></linearGradient></defs><sodipodi:namedview
     pagecolor="#ffffff"
     bordercolor="#666666"
     borderopacity="1"
     objecttolerance="10"
     gridtolerance="10"
     guidetolerance="10"
     inkscape:pageopacity="0"
     inkscape:pageshadow="2"
     inkscape:window-width="1366"
     inkscape:window-height="723"
     id="namedview3006"
     showgrid="false"
     showguides="true"
     inkscape:guide-bbox="true"
     inkscape:zoom="1"
     inkscape:cx="247.21105"
     inkscape:cy="221.52786"
     inkscape:window-x="0"
     inkscape:window-y="0"
     inkscape:window-maximized="0"
     inkscape:current-layer="layer1"
     inkscape:document-units="in"><sodipodi:guide
       orientation="1,0"
       position="630,588"
       id="guide7469" /><sodipodi:guide
       orientation="1,0"
       position="405,98.994949"
       id="guide7786" /><sodipodi:guide
       orientation="0,1"
       position="-143,45"
       id="guide7794" /><sodipodi:guide
       orientation="0,1"
       position="-143,337.5"
       id="guide7798" /><sodipodi:guide
       orientation="0,1"
       position="22,135"
       id="guide7808" /><sodipodi:guide
       orientation="0,1"
       position="97,90"
       id="guide7816" /></sodipodi:namedview><g
     id="g3012"
     inkscape:groupmode="layer"
     inkscape:label="ScoutBook-Orig-Cover"
     transform="matrix(1.25,0,0,-1.25,0,539.99875)"
     sodipodi:insensitive="true"><g
       id="g3014"><g
         id="g3016"
         clip-path="url(#clipPath3018)"><g
           id="g3022"
           transform="translate(540,53.999)"><path
             d="m 0,0 c 0,-9.941 -8.059,-18 -18,-18 l -467.999,0 c -9.941,0 -18,8.059 -18,18 l 0,323.999 c 0,9.941 8.059,18 18,18 l 467.999,0 c 9.941,0 18,-8.059 18,-18 L 0,0 z"
             style="fill:none;stroke:#00adef;stroke-width:1;stroke-linecap:butt;stroke-linejoin:miter;stroke-miterlimit:4;stroke-opacity:1;stroke-dasharray:none"
             id="path3024"
             inkscape:connector-curvature="0" /></g><g
           id="g3026"
           transform="translate(288.0005,395.9985)"><path
             d="M 0,0 0,-359.999"
             style="fill:none;stroke:#00adef;stroke-width:1;stroke-linecap:butt;stroke-linejoin:miter;stroke-miterlimit:4;stroke-opacity:1;stroke-dasharray:none"
             id="path3028"
             inkscape:connector-curvature="0" /></g><path
           d="m 549,26.999 -522,0 0,378 522,0 0,-378 z"
           style="fill:none;stroke:#f680c5;stroke-width:1;stroke-linecap:butt;stroke-linejoin:miter;stroke-miterlimit:4;stroke-opacity:1;stroke-dasharray:none"
           id="path3030"
           inkscape:connector-curvature="0" /><g
           id="g3032"
           transform="translate(35.9795,431.998)"><path
             d="M 0,0 0,-27"
             style="fill:none;stroke:#000000;stroke-width:0.25;stroke-linecap:butt;stroke-linejoin:miter;stroke-miterlimit:4;stroke-opacity:1;stroke-dasharray:none"
             id="path3034"
             inkscape:connector-curvature="0" /></g><g
           id="g3036"
           transform="translate(-0.5215,395.998)"><path
             d="M 0,0 27,0"
             style="fill:none;stroke:#000000;stroke-width:0.25;stroke-linecap:butt;stroke-linejoin:miter;stroke-miterlimit:4;stroke-opacity:1;stroke-dasharray:none"
             id="path3038"
             inkscape:connector-curvature="0" /></g><g
           id="g3040"
           transform="translate(-0.5215,35.999)"><path
             d="M 0,0 27,0"
             style="fill:none;stroke:#000000;stroke-width:0.25;stroke-linecap:butt;stroke-linejoin:miter;stroke-miterlimit:4;stroke-opacity:1;stroke-dasharray:none"
             id="path3042"
             inkscape:connector-curvature="0" /></g><g
           id="g3044"
           transform="translate(549,395.998)"><path
             d="M 0,0 27,0"
             style="fill:none;stroke:#000000;stroke-width:0.25;stroke-linecap:butt;stroke-linejoin:miter;stroke-miterlimit:4;stroke-opacity:1;stroke-dasharray:none"
             id="path3046"
             inkscape:connector-curvature="0" /></g><g
           id="g3048"
           transform="translate(549,35.999)"><path
             d="M 0,0 27,0"
             style="fill:none;stroke:#000000;stroke-width:0.25;stroke-linecap:butt;stroke-linejoin:miter;stroke-miterlimit:4;stroke-opacity:1;stroke-dasharray:none"
             id="path3050"
             inkscape:connector-curvature="0" /></g><g
           id="g3052"
           transform="translate(540,431.998)"><path
             d="M 0,0 0,-27"
             style="fill:none;stroke:#000000;stroke-width:0.25;stroke-linecap:butt;stroke-linejoin:miter;stroke-miterlimit:4;stroke-opacity:1;stroke-dasharray:none"
             id="path3054"
             inkscape:connector-curvature="0" /></g><g
           id="g3056"
           transform="translate(35.9795,26.999)"><path
             d="M 0,0 0,-27"
             style="fill:none;stroke:#000000;stroke-width:0.25;stroke-linecap:butt;stroke-linejoin:miter;stroke-miterlimit:4;stroke-opacity:1;stroke-dasharray:none"
             id="path3058"
             inkscape:connector-curvature="0" /></g><g
           id="g3060"
           transform="translate(540,26.999)"><path
             d="M 0,0 0,-27"
             style="fill:none;stroke:#000000;stroke-width:0.25;stroke-linecap:butt;stroke-linejoin:miter;stroke-miterlimit:4;stroke-opacity:1;stroke-dasharray:none"
             id="path3062"
             inkscape:connector-curvature="0" /></g></g></g></g><g
     inkscape:groupmode="layer"
     id="layer1"
     inkscape:label="Artwork"><rect
       style="fill:#000000;fill-opacity:0.74901962;stroke:#000000;stroke-width:0.10273527000000000;stroke-linecap:round;stroke-linejoin:round;stroke-miterlimit:4;stroke-opacity:1;stroke-dasharray:none;stroke-dashoffset:0;opacity:1"
       id="rect6446"
       width="326.12448"
       height="224.85567"
       x="360.06262"
       y="90.080521" /><text
       xml:space="preserve"
       style="font-size:19.10415459px;font-style:normal;font-variant:normal;font-weight:normal;font-stretch:normal;text-align:start;line-height:112.00000048%;letter-spacing:0px;word-spacing:0px;writing-mode:lr-tb;text-anchor:start;fill:#000000;fill-opacity:1;stroke:none;font-family:Aleo;-inkscape-font-specification:Aleo"
       x="404.69388"
       y="390.43665"
       id="text7250"
       sodipodi:linespacing="112%"><tspan
         sodipodi:role="line"
         x="404.69388"
         y="390.43665"
         id="tspan7254"
         dx="0 -0.17677669 -0.17677669 -0.17677669">2015</tspan><tspan
         sodipodi:role="line"
         x="404.69388"
         y="411.83331"
         id="tspan7258"
         dx="0 0 -0.70710677 -1.0606601 0.35355338 0 0.17677669 0.17677669">PORTLAND</tspan><tspan
         sodipodi:role="line"
         x="404.69388"
         y="433.22995"
         id="tspan7260"
         dx="0 -0.70710677 0.17677669 -0.17677669 0.35355338 -0.88388348">OREGON</tspan></text>
<g
       transform="translate(391.15793,-597.78048)"
       id="g5960"><path
         inkscape:connector-curvature="0"
         d="m 147.28828,748.71818 -1.50872,0.13716 c -0.79249,0.061 -1.2954,0.60961 -1.50872,1.64587 l -5.76055,24.91667 -6.26345,0 -4.80046,-20.3448 -0.13716,0 -4.6633,20.3448 -6.44633,0 -6.30918,-26.37967 -2.60596,-0.13715 0,-3.88609 11.33823,0 0,3.70321 -1.50872,0.13716 c -0.94486,0.0915 -1.41729,0.48769 -1.41728,1.18869 -1e-5,0.12194 0.0152,0.25909 0.0457,0.41146 l 3.97752,17.64741 0.18288,0 4.75474,-20.66484 5.89771,0 4.93761,20.75627 0.0914,0 3.88608,-19.1104 -2.4688,-0.18287 0,-3.88609 10.2867,0 0,3.70321"
         style="font-size:200px;font-style:normal;font-variant:normal;font-weight:normal;font-stretch:normal;text-align:end;line-height:87.00000048%;letter-spacing:0px;word-spacing:0px;text-anchor:end;fill:#f2f0eb;fill-opacity:1;stroke:none;font-family:Bree Serif;-inkscape-font-specification:Bree Serif"
         id="path3811" /><path
         inkscape:connector-curvature="0"
         d="m 148.96915,775.41788 0,-3.70321 1.50872,-0.13716 c 0.88389,-0.0914 1.32583,-0.51814 1.32584,-1.28012 l 0,-21.25918 -2.60597,-0.13715 0,-3.88609 12.4812,0 c 3.53556,3e-5 6.24819,0.65533 8.13792,1.9659 1.88968,1.31063 2.83453,3.45941 2.83456,6.44634 -3e-5,2.07259 -0.54865,3.77942 -1.64588,5.12049 -1.06679,1.34109 -2.34691,2.31642 -3.84036,2.92599 1.09722,0.39624 1.96588,1.32585 2.60596,2.78884 l 3.29174,7.17783 2.60597,0.0914 0,3.88608 -11.29251,0 0,-3.70321 1.32584,-0.13716 c 0.701,-0.0914 1.05151,-0.36574 1.05153,-0.82293 -2e-5,-0.18287 -0.061,-0.39622 -0.18288,-0.64006 l -2.14877,-4.57187 c -0.33529,-0.76197 -0.71628,-1.29535 -1.14297,-1.60015 -0.39624,-0.33526 -0.97535,-0.5029 -1.73731,-0.50291 l -4.1604,0 0,7.95505 2.97172,0.13716 0,3.88608 -11.38395,0 m 8.41223,-16.32156 3.97753,0 c 3.74891,2e-5 5.62337,-1.67633 5.62339,-5.02905 -2e-5,-1.92016 -0.50292,-3.16981 -1.50871,-3.74893 -0.97535,-0.57908 -2.56026,-0.86863 -4.75475,-0.86866 l -3.33746,0 0,9.64664"
         style="font-size:200px;font-style:normal;font-variant:normal;font-weight:normal;font-stretch:normal;text-align:end;line-height:87.00000048%;letter-spacing:0px;word-spacing:0px;text-anchor:end;fill:#f2f0eb;fill-opacity:1;stroke:none;font-family:Bree Serif;-inkscape-font-specification:Bree Serif"
         id="path3813" /><path
         inkscape:connector-curvature="0"
         d="m 180.46716,770.0688 0,-21.03059 -2.60596,-0.13715 0,-3.88609 11.06392,0 0,3.70321 -1.50872,0.13716 c -0.8839,0.0915 -1.32585,0.57913 -1.32584,1.463 l 0,21.0763 2.60596,0.13716 0,3.88608 -11.06391,0 0,-3.70321 1.50871,-0.13716 c 0.45718,-0.0609 0.79246,-0.18287 1.00581,-0.36575 0.21335,-0.21335 0.32003,-0.59433 0.32003,-1.14296"
         style="font-size:200px;font-style:normal;font-variant:normal;font-weight:normal;font-stretch:normal;text-align:end;line-height:87.00000048%;letter-spacing:0px;word-spacing:0px;text-anchor:end;fill:#f2f0eb;fill-opacity:1;stroke:none;font-family:Bree Serif;-inkscape-font-specification:Bree Serif"
         id="path3815" /><path
         inkscape:connector-curvature="0"
         d="m 200.15548,770.29739 0,-20.75627 -3.56606,0 c -0.70103,2e-5 -1.05153,0.47245 -1.05153,1.41728 l 0,2.14878 -4.6633,-0.32004 0,-7.77217 23.91086,0 0,7.77217 -4.66331,0.32004 0,-2.14878 c -2e-5,-0.51812 -0.0762,-0.88387 -0.22859,-1.09725 -0.15241,-0.21333 -0.51816,-0.32001 -1.09725,-0.32003 l -3.10887,0 0,21.85352 3.61178,0.13716 0,3.88608 -12.89266,0 0,-3.70321 2.42308,-0.13716 c 0.88389,-0.0914 1.32584,-0.51814 1.32585,-1.28012"
         style="font-size:200px;font-style:normal;font-variant:normal;font-weight:normal;font-stretch:normal;text-align:end;line-height:87.00000048%;letter-spacing:0px;word-spacing:0px;text-anchor:end;fill:#f2f0eb;fill-opacity:1;stroke:none;font-family:Bree Serif;-inkscape-font-specification:Bree Serif"
         id="path3817" /><path
         inkscape:connector-curvature="0"
         d="m 238.72988,775.41788 -21.71636,0 0,-3.70321 1.50871,-0.13716 c 0.88389,-0.0914 1.32584,-0.51814 1.32584,-1.28012 l 0,-21.25918 -2.60596,-0.13715 0,-3.88609 20.93915,0 0,7.5893 -4.66331,0.32003 0,-1.82875 c -1e-5,-0.51812 -0.0762,-0.88387 -0.22859,-1.09724 -0.15241,-0.21333 -0.51816,-0.32001 -1.09725,-0.32003 l -6.76636,0 0,7.81789 10.56101,0 0,4.6633 -10.56101,0 0,8.54939 7.36071,0 c 0.5486,0 0.89911,-0.10667 1.05152,-0.32003 0.15238,-0.24383 0.22858,-0.62482 0.2286,-1.14297 l 0,-2.28593 4.6633,0.32003 0,8.13792"
         style="font-size:200px;font-style:normal;font-variant:normal;font-weight:normal;font-stretch:normal;text-align:end;line-height:87.00000048%;letter-spacing:0px;word-spacing:0px;text-anchor:end;fill:#f2f0eb;fill-opacity:1;stroke:none;font-family:Bree Serif;-inkscape-font-specification:Bree Serif"
         id="path3819" /><path
         inkscape:connector-curvature="0"
         d="m 167.79399,810.07263 0,-20.75628 -3.56606,0 c -0.70102,3e-5 -1.05153,0.47246 -1.05153,1.41728 l 0,2.14878 -4.6633,-0.32003 0,-7.77217 23.91086,0 0,7.77217 -4.66331,0.32003 0,-2.14878 c -2e-5,-0.51812 -0.0762,-0.88387 -0.22859,-1.09725 -0.15241,-0.21332 -0.51816,-0.32 -1.09725,-0.32003 l -3.10887,0 0,21.85352 3.61178,0.13716 0,3.88609 -12.89266,0 0,-3.70322 2.42308,-0.13715 c 0.88389,-0.0914 1.32584,-0.51814 1.32585,-1.28012"
         style="font-size:200px;font-style:normal;font-variant:normal;font-weight:normal;font-stretch:normal;text-align:end;line-height:87.00000048%;letter-spacing:0px;word-spacing:0px;text-anchor:end;fill:#f2f0eb;fill-opacity:1;stroke:none;font-family:Bree Serif;-inkscape-font-specification:Bree Serif"
         id="path3821" /><path
         inkscape:connector-curvature="0"
         d="m 205.91121,809.84403 0,-7.90933 -12.93839,0 0,9.23517 2.65169,0.13716 0,3.88609 -11.06392,0 0,-3.70322 1.50872,-0.13715 c 0.88389,-0.0914 1.32583,-0.51814 1.32584,-1.28012 l 0,-21.25918 -2.60597,-0.13716 0,-3.88608 11.06392,0 0,3.70321 -1.50872,0.13715 c -0.48767,0.061 -0.83818,0.19814 -1.05152,0.41147 -0.21337,0.1829 -0.32005,0.54865 -0.32004,1.09725 l 0,7.08639 12.93839,0 0,-8.41223 -2.60597,-0.13716 0,-3.88608 11.06392,0 0,3.70321 -1.50872,0.13715 c -0.88392,0.0915 -1.32587,0.57913 -1.32584,1.463 l 0,21.0763 2.60596,0.13716 0,3.88609 -11.06391,0 0,-3.70322 1.50871,-0.13715 c 0.45717,-0.061 0.79244,-0.18287 1.00581,-0.36575 0.21333,-0.21335 0.32001,-0.59434 0.32004,-1.14297"
         style="font-size:200px;font-style:normal;font-variant:normal;font-weight:normal;font-stretch:normal;text-align:end;line-height:87.00000048%;letter-spacing:0px;word-spacing:0px;text-anchor:end;fill:#f2f0eb;fill-opacity:1;stroke:none;font-family:Bree Serif;-inkscape-font-specification:Bree Serif"
         id="path3823" /><path
         inkscape:connector-curvature="0"
         d="m 238.72988,815.19312 -21.71636,0 0,-3.70322 1.50871,-0.13715 c 0.88389,-0.0914 1.32584,-0.51814 1.32584,-1.28012 l 0,-21.25918 -2.60596,-0.13716 0,-3.88608 20.93915,0 0,7.58929 -4.66331,0.32003 0,-1.82874 c -1e-5,-0.51812 -0.0762,-0.88387 -0.22859,-1.09725 -0.15241,-0.21333 -0.51816,-0.32 -1.09725,-0.32003 l -6.76636,0 0,7.81789 10.56101,0 0,4.6633 -10.56101,0 0,8.54939 7.36071,0 c 0.5486,10e-6 0.89911,-0.10667 1.05152,-0.32003 0.15238,-0.24382 0.22858,-0.62481 0.2286,-1.14296 l 0,-2.28594 4.6633,0.32003 0,8.13793"
         style="font-size:200px;font-style:normal;font-variant:normal;font-weight:normal;font-stretch:normal;text-align:end;line-height:87.00000048%;letter-spacing:0px;word-spacing:0px;text-anchor:end;fill:#f2f0eb;fill-opacity:1;stroke:none;font-family:Bree Serif;-inkscape-font-specification:Bree Serif"
         id="path3825" /><path
         inkscape:connector-curvature="0"
         d="m 133.96645,854.96835 0,-3.70321 1.50872,-0.13716 c 0.88389,-0.0914 1.32583,-0.51814 1.32584,-1.28012 l 0,-21.25918 -2.60597,-0.13715 0,-3.88609 12.52692,0 c 4.48041,3e-5 7.97026,1.18872 10.46957,3.56606 2.52974,2.37739 3.79462,5.89772 3.79465,10.56101 -3e-5,2.89553 -0.38102,5.42529 -1.14297,7.58929 -0.762,2.13355 -1.79829,3.8099 -3.10887,5.02906 -2.62122,2.43833 -5.88248,3.65749 -9.78379,3.65749 l -12.9841,0 m 8.41223,-25.9682 0,21.57921 4.66331,0 c 2.62118,0 4.66328,-0.94485 6.1263,-2.83456 1.46297,-1.88969 2.19447,-4.63281 2.19449,-8.22936 -2e-5,-7.01017 -2.97173,-10.51526 -8.91514,-10.51529 l -4.06896,0"
         style="font-size:200px;font-style:normal;font-variant:normal;font-weight:normal;font-stretch:normal;text-align:end;line-height:87.00000048%;letter-spacing:0px;word-spacing:0px;text-anchor:end;fill:#f2f0eb;fill-opacity:1;stroke:none;font-family:Bree Serif;-inkscape-font-specification:Bree Serif"
         id="path3827" /><path
         inkscape:connector-curvature="0"
         d="m 177.39043,824.01682 c 3.62699,3e-5 6.65966,1.28015 9.09801,3.84036 2.4383,2.56027 3.65747,6.47683 3.6575,11.7497 -3e-5,5.24242 -1.2192,9.21994 -3.6575,11.93257 -2.40787,2.68216 -5.68437,4.02324 -9.82951,4.02324 -4.11469,0 -7.34547,-1.34108 -9.69235,-4.02324 -2.3469,-2.68216 -3.52034,-6.58348 -3.52034,-11.70398 0,-2.80406 0.41147,-5.25762 1.2344,-7.3607 0.82293,-2.13351 1.90494,-3.77938 3.24603,-4.93762 2.71263,-2.34686 5.86721,-3.5203 9.46376,-3.52033 m -8.22936,15.59006 c -1e-5,7.55883 2.62119,11.33823 7.86361,11.33823 2.80406,0 4.76996,-1.1582 5.89771,-3.47462 1.03626,-2.04209 1.55441,-4.54137 1.55443,-7.49786 -2e-5,-2.65166 -0.45721,-5.08999 -1.37156,-7.31499 -0.51816,-1.21914 -1.31062,-2.17923 -2.37737,-2.88027 -1.03631,-0.70099 -2.39262,-1.0515 -4.06896,-1.05153 -1.67636,3e-5 -3.12412,0.54865 -4.34327,1.64587 -1.1887,1.09727 -2.01163,2.42311 -2.46881,3.97752 -0.45719,1.55446 -0.68579,3.307 -0.68578,5.25765"
         style="font-size:200px;font-style:normal;font-variant:normal;font-weight:normal;font-stretch:normal;text-align:end;line-height:87.00000048%;letter-spacing:0px;word-spacing:0px;text-anchor:end;fill:#f2f0eb;fill-opacity:1;stroke:none;font-family:Bree Serif;-inkscape-font-specification:Bree Serif"
         id="path3829" /><path
         inkscape:connector-curvature="0"
         d="m 210.7563,829.41162 c -0.33528,-0.57908 -1.58493,-0.86863 -3.74893,-0.86866 -2.83457,3e-5 -4.98334,0.96012 -6.44633,2.88028 -1.463,1.92021 -2.1945,4.6938 -2.19449,8.3208 -1e-5,7.52834 2.8193,11.29251 8.45795,11.29251 0.0914,0 0.48765,0 1.18868,0 0.73149,0 1.41726,-0.0914 2.05734,-0.27432 0.64005,-0.21335 1.02103,-0.4267 1.14297,-0.64006 0.1219,-0.21335 0.18286,-0.54862 0.18288,-1.00581 l 0,-3.65749 4.6633,0.32003 0,7.90933 c -2.37739,1.24964 -5.39482,1.87446 -9.0523,1.87446 -4.66331,0 -8.22936,-1.3106 -10.69816,-3.9318 -2.43833,-2.6212 -3.6575,-6.52252 -3.65749,-11.70398 -1e-5,-2.86502 0.41146,-5.3643 1.2344,-7.49786 0.82293,-2.13351 1.93542,-3.79462 3.33746,-4.98333 2.74311,-2.28591 6.00437,-3.42887 9.78379,-3.4289 3.0479,3e-5 5.91293,0.62485 8.59511,1.87446 l 0,7.77217 -4.6633,0.32003 0,-3.56605 c -2e-5,-0.45716 -0.061,-0.79243 -0.18288,-1.00581"
         style="font-size:200px;font-style:normal;font-variant:normal;font-weight:normal;font-stretch:normal;text-align:end;line-height:87.00000048%;letter-spacing:0px;word-spacing:0px;text-anchor:end;fill:#f2f0eb;fill-opacity:1;stroke:none;font-family:Bree Serif;-inkscape-font-specification:Bree Serif"
         id="path3831" /><path
         inkscape:connector-curvature="0"
         d="m 227.7274,850.85367 c 3.65747,0 5.48622,-1.46299 5.48623,-4.38899 -1e-5,-1.52395 -0.80771,-2.65167 -2.42308,-3.38318 -0.85343,-0.4267 -1.96592,-0.82292 -3.33747,-1.18869 -1.34108,-0.36573 -2.46881,-0.73148 -3.38318,-1.09724 -0.8839,-0.39622 -1.78303,-0.9296 -2.6974,-1.60016 -1.79827,-1.34106 -2.6974,-3.3984 -2.6974,-6.17202 0,-2.80405 0.96009,-4.99854 2.88028,-6.58348 1.95065,-1.61537 4.48042,-2.42306 7.58929,-2.42309 3.13934,3e-5 6.05009,0.62485 8.73227,1.87446 l 0,6.8578 -4.66331,0.32003 0,-2.65168 c -1e-5,-0.45716 -0.061,-0.79243 -0.18287,-1.00581 -0.33528,-0.57908 -1.41729,-0.86863 -3.24602,-0.86866 -1.79828,3e-5 -3.13936,0.32006 -4.02325,0.9601 -0.85342,0.64008 -1.28013,1.63065 -1.28012,2.97171 -1e-5,0.97535 0.36574,1.82877 1.09725,2.56024 0.48766,0.48769 1.20391,0.89916 2.14878,1.23441 0.97532,0.30481 1.99636,0.62484 3.06315,0.96009 1.09723,0.33529 2.05732,0.70104 2.88027,1.09725 0.8534,0.39624 1.73729,0.94487 2.65168,1.64587 1.85921,1.37157 2.78882,3.48987 2.78884,6.35489 -2e-5,2.86505 -1.03631,5.1205 -3.10887,6.76636 -2.04211,1.64588 -4.75475,2.46881 -8.13792,2.46881 -3.35271,0 -6.37013,-0.62482 -9.05229,-1.87446 l 0,-7.22355 4.6633,-0.32003 0,2.78884 c -1e-5,0.45719 0.0609,0.79246 0.18287,1.00581 0.12192,0.21336 0.48766,0.42671 1.09725,0.64006 0.64006,0.18288 1.63062,0.27431 2.97172,0.27431"
         style="font-size:200px;font-style:normal;font-variant:normal;font-weight:normal;font-stretch:normal;text-align:end;line-height:87.00000048%;letter-spacing:0px;word-spacing:0px;text-anchor:end;fill:#f2f0eb;fill-opacity:1;stroke:none;font-family:Bree Serif;-inkscape-font-specification:Bree Serif"
         id="path3833" /></g><text
       xml:space="preserve"
       style="font-size:14px;font-style:italic;font-variant:normal;font-weight:normal;font-stretch:normal;text-align:center;line-height:125%;letter-spacing:0px;word-spacing:0px;writing-mode:lr-tb;text-anchor:middle;fill:#000000;fill-opacity:1;stroke:none;font-family:Aleo;-inkscape-font-specification:Aleo Italic"
       x="202.84737"
       y="449.99878"
       id="text7496"
       sodipodi:linespacing="125%"><tspan
         sodipodi:role="line"
         x="202.84737"
         y="449.99878"
         id="tspan7810">Docs or it didn't happen</tspan></text>
</g></svg>