<?xml version="1.0" encoding="UTF-8" standalone="no"?>
<!-- Created with Inkscape (http://www.inkscape.org/) -->

<svg
   xmlns:dc="http://purl.org/dc/elements/1.1/"
   xmlns:cc="http://creativecommons.org/ns#"
   xmlns:rdf="http://www.w3.org/1999/02/22-rdf-syntax-ns#"
   xmlns:svg="http://www.w3.org/2000/svg"
   xmlns="http://www.w3.org/2000/svg"
   xmlns:xlink="http://www.w3.org/1999/xlink"
   xmlns:sodipodi="http://sodipodi.sourceforge.net/DTD/sodipodi-0.dtd"
   xmlns:inkscape="http://www.inkscape.org/namespaces/inkscape"
   width="720"
   height="945"
   id="svg3560"
   version="1.1"
   inkscape:version="0.48.5 r10040"
   sodipodi:docname="writing-day-restrooms-right.pdf">
  <defs
     id="defs3562">
    <linearGradient
       inkscape:collect="always"
       xlink:href="#linearGradient3779"
       id="linearGradient3785"
       x1="895.00568"
       y1="332.82974"
       x2="903.14038"
       y2="461.40115"
       gradientUnits="userSpaceOnUse"
       gradientTransform="matrix(3.1356151,0,0,3.1356151,-1786.9243,-458.78499)" />
    <linearGradient
       id="linearGradient3779">
      <stop
         style="stop-color:#bab3c3;stop-opacity:1;"
         offset="0"
         id="stop3781" />
      <stop
         style="stop-color:#b0b2c7;stop-opacity:1;"
         offset="1"
         id="stop3783" />
    </linearGradient>
    <linearGradient
       inkscape:collect="always"
       xlink:href="#linearGradient3779"
       id="linearGradient3297"
       x1="895.00568"
       y1="332.82974"
       x2="903.14038"
       y2="461.40115"
       gradientUnits="userSpaceOnUse"
       gradientTransform="matrix(3.1356151,0,0,3.1356151,-1786.9243,-458.78499)" />
    <linearGradient
       id="linearGradient3299">
      <stop
         style="stop-color:#bab3c3;stop-opacity:1;"
         offset="0"
         id="stop3301" />
      <stop
         style="stop-color:#b0b2c7;stop-opacity:1;"
         offset="1"
         id="stop3303" />
    </linearGradient>
    <linearGradient
       inkscape:collect="always"
       xlink:href="#linearGradient3779"
       id="linearGradient3305"
       x1="895.00568"
       y1="332.82974"
       x2="903.14038"
       y2="461.40115"
       gradientUnits="userSpaceOnUse"
       gradientTransform="matrix(3.1356151,0,0,3.1356151,-1786.9243,-458.78499)" />
    <linearGradient
       id="linearGradient3307">
      <stop
         style="stop-color:#bab3c3;stop-opacity:1;"
         offset="0"
         id="stop3309" />
      <stop
         style="stop-color:#b0b2c7;stop-opacity:1;"
         offset="1"
         id="stop3311" />
    </linearGradient>
    <linearGradient
       inkscape:collect="always"
       xlink:href="#linearGradient3779"
       id="linearGradient3313"
       x1="895.00568"
       y1="332.82974"
       x2="903.14038"
       y2="461.40115"
       gradientUnits="userSpaceOnUse"
       gradientTransform="matrix(3.1356151,0,0,3.1356151,-1786.9243,-458.78499)" />
    <linearGradient
       id="linearGradient3315">
      <stop
         style="stop-color:#bab3c3;stop-opacity:1;"
         offset="0"
         id="stop3317" />
      <stop
         style="stop-color:#b0b2c7;stop-opacity:1;"
         offset="1"
         id="stop3319" />
    </linearGradient>
    <linearGradient
       inkscape:collect="always"
       xlink:href="#linearGradient3779"
       id="linearGradient3321"
       x1="895.00568"
       y1="332.82974"
       x2="903.14038"
       y2="461.40115"
       gradientUnits="userSpaceOnUse"
       gradientTransform="matrix(3.1356151,0,0,3.1356151,-1786.9243,-458.78499)" />
    <linearGradient
       id="linearGradient3323">
      <stop
         style="stop-color:#bab3c3;stop-opacity:1;"
         offset="0"
         id="stop3325" />
      <stop
         style="stop-color:#b0b2c7;stop-opacity:1;"
         offset="1"
         id="stop3327" />
    </linearGradient>
    <linearGradient
       inkscape:collect="always"
       xlink:href="#linearGradient3779"
       id="linearGradient3329"
       x1="895.00568"
       y1="332.82974"
       x2="903.14038"
       y2="461.40115"
       gradientUnits="userSpaceOnUse"
       gradientTransform="matrix(3.1356151,0,0,3.1356151,-1786.9243,-458.78499)" />
    <linearGradient
       id="linearGradient3331">
      <stop
         style="stop-color:#bab3c3;stop-opacity:1;"
         offset="0"
         id="stop3333" />
      <stop
         style="stop-color:#b0b2c7;stop-opacity:1;"
         offset="1"
         id="stop3335" />
    </linearGradient>
    <linearGradient
       inkscape:collect="always"
       xlink:href="#linearGradient3779"
       id="linearGradient3337"
       x1="895.00568"
       y1="332.82974"
       x2="903.14038"
       y2="461.40115"
       gradientUnits="userSpaceOnUse"
       gradientTransform="matrix(3.1356151,0,0,3.1356151,-1786.9243,-458.78499)" />
    <linearGradient
       id="linearGradient3339">
      <stop
         style="stop-color:#bab3c3;stop-opacity:1;"
         offset="0"
         id="stop3341" />
      <stop
         style="stop-color:#b0b2c7;stop-opacity:1;"
         offset="1"
         id="stop3343" />
    </linearGradient>
    <linearGradient
       inkscape:collect="always"
       xlink:href="#linearGradient3779"
       id="linearGradient3345"
       x1="895.00568"
       y1="332.82974"
       x2="903.14038"
       y2="461.40115"
       gradientUnits="userSpaceOnUse"
       gradientTransform="matrix(3.1356151,0,0,3.1356151,-1786.9243,-458.78499)" />
    <linearGradient
       id="linearGradient3347">
      <stop
         style="stop-color:#bab3c3;stop-opacity:1;"
         offset="0"
         id="stop3349" />
      <stop
         style="stop-color:#b0b2c7;stop-opacity:1;"
         offset="1"
         id="stop3351" />
    </linearGradient>
    <linearGradient
       inkscape:collect="always"
       xlink:href="#linearGradient3779"
       id="linearGradient3353"
       x1="895.00568"
       y1="332.82974"
       x2="903.14038"
       y2="461.40115"
       gradientUnits="userSpaceOnUse"
       gradientTransform="matrix(3.1356151,0,0,3.1356151,-1786.9243,-458.78499)" />
    <linearGradient
       id="linearGradient3355">
      <stop
         style="stop-color:#bab3c3;stop-opacity:1;"
         offset="0"
         id="stop3357" />
      <stop
         style="stop-color:#b0b2c7;stop-opacity:1;"
         offset="1"
         id="stop3359" />
    </linearGradient>
    <linearGradient
       inkscape:collect="always"
       xlink:href="#linearGradient3779"
       id="linearGradient3361"
       x1="895.00568"
       y1="332.82974"
       x2="903.14038"
       y2="461.40115"
       gradientUnits="userSpaceOnUse"
       gradientTransform="matrix(3.1356151,0,0,3.1356151,-1786.9243,-458.78499)" />
    <linearGradient
       id="linearGradient3363">
      <stop
         style="stop-color:#bab3c3;stop-opacity:1;"
         offset="0"
         id="stop3365" />
      <stop
         style="stop-color:#b0b2c7;stop-opacity:1;"
         offset="1"
         id="stop3367" />
    </linearGradient>
    <linearGradient
       inkscape:collect="always"
       xlink:href="#linearGradient3779"
       id="linearGradient3369"
       x1="895.00568"
       y1="332.82974"
       x2="903.14038"
       y2="461.40115"
       gradientUnits="userSpaceOnUse"
       gradientTransform="matrix(3.1356151,0,0,3.1356151,-1786.9243,-458.78499)" />
    <linearGradient
       id="linearGradient3371">
      <stop
         style="stop-color:#bab3c3;stop-opacity:1;"
         offset="0"
         id="stop3373" />
      <stop
         style="stop-color:#b0b2c7;stop-opacity:1;"
         offset="1"
         id="stop3375" />
    </linearGradient>
    <linearGradient
       inkscape:collect="always"
       xlink:href="#linearGradient3779"
       id="linearGradient3377"
       x1="895.00568"
       y1="332.82974"
       x2="903.14038"
       y2="461.40115"
       gradientUnits="userSpaceOnUse"
       gradientTransform="matrix(3.1356151,0,0,3.1356151,-1786.9243,-458.78499)" />
    <linearGradient
       id="linearGradient3379">
      <stop
         style="stop-color:#bab3c3;stop-opacity:1;"
         offset="0"
         id="stop3381" />
      <stop
         style="stop-color:#b0b2c7;stop-opacity:1;"
         offset="1"
         id="stop3383" />
    </linearGradient>
    <linearGradient
       inkscape:collect="always"
       xlink:href="#linearGradient3779"
       id="linearGradient3385"
       x1="895.00568"
       y1="332.82974"
       x2="903.14038"
       y2="461.40115"
       gradientUnits="userSpaceOnUse"
       gradientTransform="matrix(3.1356151,0,0,3.1356151,-1786.9243,-458.78499)" />
    <linearGradient
       id="linearGradient3387">
      <stop
         style="stop-color:#bab3c3;stop-opacity:1;"
         offset="0"
         id="stop3389" />
      <stop
         style="stop-color:#b0b2c7;stop-opacity:1;"
         offset="1"
         id="stop3391" />
    </linearGradient>
    <linearGradient
       inkscape:collect="always"
       xlink:href="#linearGradient3779"
       id="linearGradient3393"
       x1="895.00568"
       y1="332.82974"
       x2="903.14038"
       y2="461.40115"
       gradientUnits="userSpaceOnUse"
       gradientTransform="matrix(3.1356151,0,0,3.1356151,-1786.9243,-458.78499)" />
    <linearGradient
       id="linearGradient3395">
      <stop
         style="stop-color:#bab3c3;stop-opacity:1;"
         offset="0"
         id="stop3397" />
      <stop
         style="stop-color:#b0b2c7;stop-opacity:1;"
         offset="1"
         id="stop3399" />
    </linearGradient>
    <linearGradient
       inkscape:collect="always"
       xlink:href="#linearGradient3779"
       id="linearGradient3401"
       x1="895.00568"
       y1="332.82974"
       x2="903.14038"
       y2="461.40115"
       gradientUnits="userSpaceOnUse"
       gradientTransform="matrix(3.1356151,0,0,3.1356151,-1786.9243,-458.78499)" />
    <linearGradient
       id="linearGradient3403">
      <stop
         style="stop-color:#bab3c3;stop-opacity:1;"
         offset="0"
         id="stop3405" />
      <stop
         style="stop-color:#b0b2c7;stop-opacity:1;"
         offset="1"
         id="stop3407" />
    </linearGradient>
    <linearGradient
       inkscape:collect="always"
       xlink:href="#linearGradient3779"
       id="linearGradient3409"
       x1="895.00568"
       y1="332.82974"
       x2="903.14038"
       y2="461.40115"
       gradientUnits="userSpaceOnUse"
       gradientTransform="matrix(3.1356151,0,0,3.1356151,-1786.9243,-458.78499)" />
    <linearGradient
       id="linearGradient3411">
      <stop
         style="stop-color:#bab3c3;stop-opacity:1;"
         offset="0"
         id="stop3413" />
      <stop
         style="stop-color:#b0b2c7;stop-opacity:1;"
         offset="1"
         id="stop3415" />
    </linearGradient>
    <linearGradient
       inkscape:collect="always"
       xlink:href="#linearGradient3779"
       id="linearGradient3417"
       x1="895.00568"
       y1="332.82974"
       x2="903.14038"
       y2="461.40115"
       gradientUnits="userSpaceOnUse"
       gradientTransform="matrix(3.1356151,0,0,3.1356151,-1786.9243,-458.78499)" />
    <linearGradient
       id="linearGradient3419">
      <stop
         style="stop-color:#bab3c3;stop-opacity:1;"
         offset="0"
         id="stop3421" />
      <stop
         style="stop-color:#b0b2c7;stop-opacity:1;"
         offset="1"
         id="stop3423" />
    </linearGradient>
    <linearGradient
       inkscape:collect="always"
       xlink:href="#linearGradient3779"
       id="linearGradient3425"
       x1="895.00568"
       y1="332.82974"
       x2="903.14038"
       y2="461.40115"
       gradientUnits="userSpaceOnUse"
       gradientTransform="matrix(3.1356151,0,0,3.1356151,-1786.9243,-458.78499)" />
    <linearGradient
       id="linearGradient3427">
      <stop
         style="stop-color:#bab3c3;stop-opacity:1;"
         offset="0"
         id="stop3429" />
      <stop
         style="stop-color:#b0b2c7;stop-opacity:1;"
         offset="1"
         id="stop3431" />
    </linearGradient>
    <linearGradient
       inkscape:collect="always"
       xlink:href="#linearGradient3779"
       id="linearGradient3433"
       x1="895.00568"
       y1="332.82974"
       x2="903.14038"
       y2="461.40115"
       gradientUnits="userSpaceOnUse"
       gradientTransform="matrix(3.1356151,0,0,3.1356151,-1786.9243,-458.78499)" />
    <linearGradient
       id="linearGradient3435">
      <stop
         style="stop-color:#bab3c3;stop-opacity:1;"
         offset="0"
         id="stop3437" />
      <stop
         style="stop-color:#b0b2c7;stop-opacity:1;"
         offset="1"
         id="stop3439" />
    </linearGradient>
    <linearGradient
       inkscape:collect="always"
       xlink:href="#linearGradient3779"
       id="linearGradient3441"
       x1="895.00568"
       y1="332.82974"
       x2="903.14038"
       y2="461.40115"
       gradientUnits="userSpaceOnUse"
       gradientTransform="matrix(3.1356151,0,0,3.1356151,-1786.9243,-458.78499)" />
    <linearGradient
       id="linearGradient3443">
      <stop
         style="stop-color:#bab3c3;stop-opacity:1;"
         offset="0"
         id="stop3445" />
      <stop
         style="stop-color:#b0b2c7;stop-opacity:1;"
         offset="1"
         id="stop3447" />
    </linearGradient>
    <linearGradient
       inkscape:collect="always"
       xlink:href="#linearGradient3779"
       id="linearGradient3449"
       x1="895.00568"
       y1="332.82974"
       x2="903.14038"
       y2="461.40115"
       gradientUnits="userSpaceOnUse"
       gradientTransform="matrix(3.1356151,0,0,3.1356151,-1786.9243,-458.78499)" />
    <linearGradient
       id="linearGradient3451">
      <stop
         style="stop-color:#bab3c3;stop-opacity:1;"
         offset="0"
         id="stop3453" />
      <stop
         style="stop-color:#b0b2c7;stop-opacity:1;"
         offset="1"
         id="stop3455" />
    </linearGradient>
    <linearGradient
       inkscape:collect="always"
       xlink:href="#linearGradient3779"
       id="linearGradient3457"
       x1="895.00568"
       y1="332.82974"
       x2="903.14038"
       y2="461.40115"
       gradientUnits="userSpaceOnUse"
       gradientTransform="matrix(3.1356151,0,0,3.1356151,-1786.9243,-458.78499)" />
    <linearGradient
       id="linearGradient3459">
      <stop
         style="stop-color:#bab3c3;stop-opacity:1;"
         offset="0"
         id="stop3461" />
      <stop
         style="stop-color:#b0b2c7;stop-opacity:1;"
         offset="1"
         id="stop3463" />
    </linearGradient>
    <linearGradient
       inkscape:collect="always"
       xlink:href="#linearGradient3779"
       id="linearGradient3465"
       x1="895.00568"
       y1="332.82974"
       x2="903.14038"
       y2="461.40115"
       gradientUnits="userSpaceOnUse"
       gradientTransform="matrix(3.1356151,0,0,3.1356151,-1786.9243,-458.78499)" />
    <linearGradient
       id="linearGradient3467">
      <stop
         style="stop-color:#bab3c3;stop-opacity:1;"
         offset="0"
         id="stop3469" />
      <stop
         style="stop-color:#b0b2c7;stop-opacity:1;"
         offset="1"
         id="stop3471" />
    </linearGradient>
    <linearGradient
       inkscape:collect="always"
       xlink:href="#linearGradient3902"
       id="linearGradient3917"
       gradientUnits="userSpaceOnUse"
       gradientTransform="translate(0,-252.36218)"
       x1="530.63214"
       y1="829.70264"
       x2="528.43213"
       y2="987.70264" />
    <linearGradient
       id="linearGradient3902">
      <stop
         style="stop-color:#b86d6d;stop-opacity:1;"
         offset="0"
         id="stop3904" />
      <stop
         style="stop-color:#bf7f6f;stop-opacity:1;"
         offset="1"
         id="stop3906" />
    </linearGradient>
    <linearGradient
       inkscape:collect="always"
       xlink:href="#linearGradient3779"
       id="linearGradient3970"
       gradientUnits="userSpaceOnUse"
       gradientTransform="matrix(3.1356151,0,0,3.1356151,-1786.9243,-458.78499)"
       x1="895.00568"
       y1="332.82974"
       x2="903.14038"
       y2="461.40115" />
    <linearGradient
       inkscape:collect="always"
       xlink:href="#linearGradient3902"
       id="linearGradient3993"
       gradientUnits="userSpaceOnUse"
       gradientTransform="translate(0,-252.36218)"
       x1="530.63214"
       y1="829.70264"
       x2="528.43213"
       y2="987.70264" />
    <linearGradient
       inkscape:collect="always"
       xlink:href="#linearGradient3779"
       id="linearGradient3995"
       gradientUnits="userSpaceOnUse"
       gradientTransform="matrix(3.1356151,0,0,3.1356151,-1786.9243,-458.78499)"
       x1="895.00568"
       y1="332.82974"
       x2="903.14038"
       y2="461.40115" />
    <linearGradient
       inkscape:collect="always"
       xlink:href="#linearGradient3779"
       id="linearGradient3997"
       gradientUnits="userSpaceOnUse"
       gradientTransform="matrix(3.1356151,0,0,3.1356151,-1786.9243,-458.78499)"
       x1="895.00568"
       y1="332.82974"
       x2="903.14038"
       y2="461.40115" />
    <linearGradient
       inkscape:collect="always"
       xlink:href="#linearGradient3779"
       id="linearGradient3999"
       gradientUnits="userSpaceOnUse"
       gradientTransform="matrix(3.1356151,0,0,3.1356151,-1786.9243,-458.78499)"
       x1="895.00568"
       y1="332.82974"
       x2="903.14038"
       y2="461.40115" />
    <linearGradient
       inkscape:collect="always"
       xlink:href="#linearGradient3779"
       id="linearGradient4001"
       gradientUnits="userSpaceOnUse"
       gradientTransform="matrix(3.1356151,0,0,3.1356151,-1786.9243,-458.78499)"
       x1="895.00568"
       y1="332.82974"
       x2="903.14038"
       y2="461.40115" />
    <linearGradient
       inkscape:collect="always"
       xlink:href="#linearGradient3779"
       id="linearGradient4003"
       gradientUnits="userSpaceOnUse"
       gradientTransform="matrix(3.1356151,0,0,3.1356151,-1786.9243,-458.78499)"
       x1="895.00568"
       y1="332.82974"
       x2="903.14038"
       y2="461.40115" />
    <linearGradient
       inkscape:collect="always"
       xlink:href="#linearGradient3779"
       id="linearGradient4005"
       gradientUnits="userSpaceOnUse"
       gradientTransform="matrix(3.1356151,0,0,3.1356151,-1786.9243,-458.78499)"
       x1="895.00568"
       y1="332.82974"
       x2="903.14038"
       y2="461.40115" />
    <linearGradient
       inkscape:collect="always"
       xlink:href="#linearGradient3779"
       id="linearGradient4007"
       gradientUnits="userSpaceOnUse"
       gradientTransform="matrix(3.1356151,0,0,3.1356151,-1786.9243,-458.78499)"
       x1="895.00568"
       y1="332.82974"
       x2="903.14038"
       y2="461.40115" />
    <linearGradient
       inkscape:collect="always"
       xlink:href="#linearGradient3779"
       id="linearGradient4009"
       gradientUnits="userSpaceOnUse"
       gradientTransform="matrix(3.1356151,0,0,3.1356151,-1786.9243,-458.78499)"
       x1="895.00568"
       y1="332.82974"
       x2="903.14038"
       y2="461.40115" />
    <linearGradient
       inkscape:collect="always"
       xlink:href="#linearGradient3779"
       id="linearGradient4011"
       gradientUnits="userSpaceOnUse"
       gradientTransform="matrix(3.1356151,0,0,3.1356151,-1786.9243,-458.78499)"
       x1="895.00568"
       y1="332.82974"
       x2="903.14038"
       y2="461.40115" />
    <linearGradient
       inkscape:collect="always"
       xlink:href="#linearGradient3779"
       id="linearGradient4013"
       gradientUnits="userSpaceOnUse"
       gradientTransform="matrix(3.1356151,0,0,3.1356151,-1786.9243,-458.78499)"
       x1="895.00568"
       y1="332.82974"
       x2="903.14038"
       y2="461.40115" />
    <linearGradient
       inkscape:collect="always"
       xlink:href="#linearGradient3779"
       id="linearGradient4015"
       gradientUnits="userSpaceOnUse"
       gradientTransform="matrix(3.1356151,0,0,3.1356151,-1786.9243,-458.78499)"
       x1="895.00568"
       y1="332.82974"
       x2="903.14038"
       y2="461.40115" />
    <linearGradient
       inkscape:collect="always"
       xlink:href="#linearGradient3779"
       id="linearGradient4017"
       gradientUnits="userSpaceOnUse"
       gradientTransform="matrix(3.1356151,0,0,3.1356151,-1786.9243,-458.78499)"
       x1="895.00568"
       y1="332.82974"
       x2="903.14038"
       y2="461.40115" />
    <linearGradient
       inkscape:collect="always"
       xlink:href="#linearGradient3779"
       id="linearGradient4019"
       gradientUnits="userSpaceOnUse"
       gradientTransform="matrix(3.1356151,0,0,3.1356151,-1786.9243,-458.78499)"
       x1="895.00568"
       y1="332.82974"
       x2="903.14038"
       y2="461.40115" />
    <linearGradient
       inkscape:collect="always"
       xlink:href="#linearGradient3779"
       id="linearGradient4021"
       gradientUnits="userSpaceOnUse"
       gradientTransform="matrix(3.1356151,0,0,3.1356151,-1786.9243,-458.78499)"
       x1="895.00568"
       y1="332.82974"
       x2="903.14038"
       y2="461.40115" />
    <linearGradient
       inkscape:collect="always"
       xlink:href="#linearGradient3779"
       id="linearGradient4023"
       gradientUnits="userSpaceOnUse"
       gradientTransform="matrix(3.1356151,0,0,3.1356151,-1786.9243,-458.78499)"
       x1="895.00568"
       y1="332.82974"
       x2="903.14038"
       y2="461.40115" />
    <linearGradient
       inkscape:collect="always"
       xlink:href="#linearGradient3779"
       id="linearGradient4025"
       gradientUnits="userSpaceOnUse"
       gradientTransform="matrix(3.1356151,0,0,3.1356151,-1786.9243,-458.78499)"
       x1="895.00568"
       y1="332.82974"
       x2="903.14038"
       y2="461.40115" />
    <linearGradient
       inkscape:collect="always"
       xlink:href="#linearGradient3779"
       id="linearGradient4027"
       gradientUnits="userSpaceOnUse"
       gradientTransform="matrix(3.1356151,0,0,3.1356151,-1786.9243,-458.78499)"
       x1="895.00568"
       y1="332.82974"
       x2="903.14038"
       y2="461.40115" />
    <linearGradient
       inkscape:collect="always"
       xlink:href="#linearGradient3779"
       id="linearGradient4029"
       gradientUnits="userSpaceOnUse"
       gradientTransform="matrix(3.1356151,0,0,3.1356151,-1786.9243,-458.78499)"
       x1="895.00568"
       y1="332.82974"
       x2="903.14038"
       y2="461.40115" />
    <linearGradient
       inkscape:collect="always"
       xlink:href="#linearGradient3779"
       id="linearGradient4031"
       gradientUnits="userSpaceOnUse"
       gradientTransform="matrix(3.1356151,0,0,3.1356151,-1786.9243,-458.78499)"
       x1="895.00568"
       y1="332.82974"
       x2="903.14038"
       y2="461.40115" />
    <linearGradient
       inkscape:collect="always"
       xlink:href="#linearGradient3779"
       id="linearGradient4033"
       gradientUnits="userSpaceOnUse"
       gradientTransform="matrix(3.1356151,0,0,3.1356151,-1786.9243,-458.78499)"
       x1="895.00568"
       y1="332.82974"
       x2="903.14038"
       y2="461.40115" />
    <linearGradient
       inkscape:collect="always"
       xlink:href="#linearGradient3779"
       id="linearGradient4035"
       gradientUnits="userSpaceOnUse"
       gradientTransform="matrix(3.1356151,0,0,3.1356151,-1786.9243,-458.78499)"
       x1="895.00568"
       y1="332.82974"
       x2="903.14038"
       y2="461.40115" />
    <linearGradient
       inkscape:collect="always"
       xlink:href="#linearGradient3779"
       id="linearGradient4037"
       gradientUnits="userSpaceOnUse"
       gradientTransform="matrix(3.1356151,0,0,3.1356151,-1786.9243,-458.78499)"
       x1="895.00568"
       y1="332.82974"
       x2="903.14038"
       y2="461.40115" />
    <linearGradient
       inkscape:collect="always"
       xlink:href="#linearGradient3779"
       id="linearGradient4039"
       gradientUnits="userSpaceOnUse"
       gradientTransform="matrix(3.1356151,0,0,3.1356151,-1786.9243,-458.78499)"
       x1="895.00568"
       y1="332.82974"
       x2="903.14038"
       y2="461.40115" />
  </defs>
  <sodipodi:namedview
     id="base"
     pagecolor="#ffffff"
     bordercolor="#666666"
     borderopacity="1.0"
     inkscape:pageopacity="0.0"
     inkscape:pageshadow="2"
     inkscape:zoom="0.58593339"
     inkscape:cx="359.75"
     inkscape:cy="472.75001"
     inkscape:document-units="in"
     inkscape:current-layer="layer1"
     showgrid="false"
     units="in"
     showguides="true"
     inkscape:guide-bbox="true"
     inkscape:window-width="1366"
     inkscape:window-height="719"
     inkscape:window-x="0"
     inkscape:window-y="0"
     inkscape:window-maximized="1" />
  <metadata
     id="metadata3565">
    <rdf:RDF>
      <cc:Work
         rdf:about="">
        <dc:format>image/svg+xml</dc:format>
        <dc:type
           rdf:resource="http://purl.org/dc/dcmitype/StillImage" />
        <dc:title></dc:title>
      </cc:Work>
    </rdf:RDF>
  </metadata>
  <g
     inkscape:label="Background"
     inkscape:groupmode="layer"
     id="layer1"
     transform="translate(0,-107.35975)">
    <rect
       style="fill:#424670;fill-opacity:1;stroke:#33343c;stroke-width:0.32856488;stroke-linecap:round;stroke-linejoin:round;stroke-miterlimit:4;stroke-opacity:1;stroke-dasharray:none;stroke-dashoffset:0;display:inline"
       id="rect3098"
       width="674.67145"
       height="449.67145"
       x="22.664284"
       y="130.02402" />
    <rect
       y="579.85974"
       x="22.5"
       height="450"
       width="675"
       id="rect5317"
       style="font-size:200px;font-style:normal;font-variant:normal;font-weight:normal;font-stretch:normal;text-align:end;line-height:87.00000048%;letter-spacing:0px;word-spacing:0px;text-anchor:end;fill:#f2f0eb;fill-opacity:1;stroke:none;display:inline;font-family:Bree Serif;-inkscape-font-specification:Bree Serif" />
    <g
       id="g3885"
       transform="matrix(0.46140915,0,0,0.46135971,437.78041,256.88439)">
      <g
         id="text2989"
         style="font-size:200px;font-style:normal;font-variant:normal;font-weight:normal;font-stretch:normal;text-align:end;line-height:87.00000048%;letter-spacing:0px;word-spacing:0px;text-anchor:end;fill:#f2f0eb;fill-opacity:1;stroke:none;font-family:Bree Serif;-inkscape-font-specification:Bree Serif"
         transform="translate(-904.42458,-434.64523)">
        <path
           id="path3811"
           style="fill:#f2f0eb;-inkscape-font-specification:Bree Serif"
           d="m 325.68921,334.60265 -6.6,0.6 c -3.46683,0.26678 -5.66683,2.66678 -6.6,7.2 l -25.2,109 -27.4,0 -21,-89 -0.6,0 -20.4,89 -28.2,0 -27.6,-115.4 -11.4,-0.6 0,-17 49.6,0 0,16.2 -6.6,0.6 c -4.13337,0.40011 -6.20004,2.13345 -6.2,5.2 -4e-5,0.53344 0.0666,1.13344 0.2,1.8 l 17.4,77.2 0.8,0 20.8,-90.4 25.8,0 21.6,90.8 0.4,0 17,-83.6 -10.8,-0.8 0,-17 45,0 0,16.2"
           inkscape:connector-curvature="0" />
        <path
           id="path3813"
           style="fill:#f2f0eb;-inkscape-font-specification:Bree Serif"
           d="m 333.04233,451.40265 0,-16.2 6.6,-0.6 c 3.86665,-0.39998 5.79999,-2.26665 5.8,-5.6 l 0,-93 -11.4,-0.6 0,-17 54.6,0 c 15.46659,1.3e-4 27.33325,2.8668 35.6,8.6 8.26656,5.73345 12.39989,15.13344 12.4,28.2 -1.1e-4,9.06675 -2.4001,16.53341 -7.2,22.4 -4.66676,5.86673 -10.26676,10.1334 -16.8,12.8 4.79991,1.73339 8.59991,5.80005 11.4,12.2 l 14.4,31.4 11.4,0.4 0,17 -49.4,0 0,-16.2 5.8,-0.6 c 3.06659,-0.39998 4.59992,-1.59998 4.6,-3.6 -8e-5,-0.79998 -0.26675,-1.73331 -0.8,-2.8 l -9.4,-20 c -1.46674,-3.33329 -3.1334,-5.66662 -5,-7 -1.7334,-1.46662 -4.26673,-2.19995 -7.6,-2.2 l -18.2,0 0,34.8 13,0.6 0,17 -49.8,0 m 36.8,-71.4 17.4,0 c 16.39993,7e-5 24.59992,-7.33326 24.6,-22 -8e-5,-8.3999 -2.20008,-13.86656 -6.6,-16.4 -4.26674,-2.53322 -11.20006,-3.79989 -20.8,-3.8 l -14.6,0 0,42.2"
           inkscape:connector-curvature="0" />
        <path
           id="path3815"
           style="fill:#f2f0eb;-inkscape-font-specification:Bree Serif"
           d="m 470.83296,428.00265 0,-92 -11.4,-0.6 0,-17 48.4,0 0,16.2 -6.6,0.6 c -3.86671,0.40011 -5.80004,2.53345 -5.8,6.4 l 0,92.2 11.4,0.6 0,17 -48.4,0 0,-16.2 6.6,-0.6 c 1.99998,-0.26665 3.46665,-0.79998 4.4,-1.6 0.93331,-0.93332 1.39998,-2.59998 1.4,-5"
           inkscape:connector-curvature="0" />
        <path
           id="path3817"
           style="fill:#f2f0eb;-inkscape-font-specification:Bree Serif"
           d="m 556.96108,429.00265 0,-90.8 -15.6,0 c -3.06669,1.1e-4 -4.60002,2.06678 -4.6,6.2 l 0,9.4 -20.4,-1.4 0,-34 104.6,0 0,34 -20.4,1.4 0,-9.4 c -8e-5,-2.26656 -0.33342,-3.86656 -1,-4.8 -0.66675,-0.93322 -2.26675,-1.39989 -4.8,-1.4 l -13.6,0 0,95.6 15.8,0.6 0,17 -56.4,0 0,-16.2 10.6,-0.6 c 3.86663,-0.39998 5.79996,-2.26665 5.8,-5.6"
           inkscape:connector-curvature="0" />
        <path
           id="path3819"
           style="fill:#f2f0eb;-inkscape-font-specification:Bree Serif"
           d="m 725.70796,451.40265 -95,0 0,-16.2 6.6,-0.6 c 3.86665,-0.39998 5.79998,-2.26665 5.8,-5.6 l 0,-93 -11.4,-0.6 0,-17 91.6,0 0,33.2 -20.4,1.4 0,-8 c -8e-5,-2.26656 -0.33341,-3.86656 -1,-4.8 -0.66675,-0.93322 -2.26674,-1.39989 -4.8,-1.4 l -29.6,0 0,34.2 46.2,0 0,20.4 -46.2,0 0,37.4 32.2,0 c 2.39992,2e-5 3.93325,-0.46665 4.6,-1.4 0.66658,-1.06664 0.99992,-2.73331 1,-5 l 0,-10 20.4,1.4 0,35.6"
           inkscape:connector-curvature="0" />
        <path
           id="path3821"
           style="fill:#f2f0eb;-inkscape-font-specification:Bree Serif"
           d="m 415.39311,603.00265 0,-90.8 -15.6,0 c -3.06669,1.1e-4 -4.60002,2.06678 -4.6,6.2 l 0,9.4 -20.4,-1.4 0,-34 104.6,0 0,34 -20.4,1.4 0,-9.4 c -9e-5,-2.26656 -0.33342,-3.86656 -1,-4.8 -0.66675,-0.93322 -2.26675,-1.39989 -4.8,-1.4 l -13.6,0 0,95.6 15.8,0.6 0,17 -56.4,0 0,-16.2 10.6,-0.6 c 3.86663,-0.39998 5.79996,-2.26665 5.8,-5.6"
           inkscape:connector-curvature="0" />
        <path
           id="path3823"
           style="fill:#f2f0eb;-inkscape-font-specification:Bree Serif"
           d="m 582.13999,602.00265 0,-34.6 -56.6,0 0,40.4 11.6,0.6 0,17 -48.4,0 0,-16.2 6.6,-0.6 c 3.86665,-0.39998 5.79998,-2.26665 5.8,-5.6 l 0,-93 -11.4,-0.6 0,-17 48.4,0 0,16.2 -6.6,0.6 c -2.13338,0.26678 -3.66672,0.86678 -4.6,1.8 -0.93338,0.80011 -1.40005,2.40011 -1.4,4.8 l 0,31 56.6,0 0,-36.8 -11.4,-0.6 0,-17 48.4,0 0,16.2 -6.6,0.6 c -3.8668,0.40012 -5.80013,2.53345 -5.8,6.4 l 0,92.2 11.4,0.6 0,17 -48.4,0 0,-16.2 6.6,-0.6 c 1.9999,-0.26665 3.46657,-0.79998 4.4,-1.6 0.93323,-0.93331 1.3999,-2.59998 1.4,-5"
           inkscape:connector-curvature="0" />
        <path
           id="path3825"
           style="fill:#f2f0eb;-inkscape-font-specification:Bree Serif"
           d="m 725.70796,625.40265 -95,0 0,-16.2 6.6,-0.6 c 3.86665,-0.39998 5.79999,-2.26665 5.8,-5.6 l 0,-93 -11.4,-0.6 0,-17 91.6,0 0,33.2 -20.4,1.4 0,-8 c -7e-5,-2.26656 -0.33341,-3.86656 -1,-4.8 -0.66674,-0.93322 -2.26674,-1.39989 -4.8,-1.4 l -29.6,0 0,34.2 46.2,0 0,20.4 -46.2,0 0,37.4 32.2,0 c 2.39993,2e-5 3.93326,-0.46665 4.6,-1.4 0.66659,-1.06664 0.99992,-2.73331 1,-5 l 0,-10 20.4,1.4 0,35.6"
           inkscape:connector-curvature="0" />
        <path
           id="path3827"
           style="fill:#f2f0eb;-inkscape-font-specification:Bree Serif"
           d="m 267.4118,799.40265 0,-16.2 6.6,-0.6 c 3.86665,-0.39998 5.79998,-2.26665 5.8,-5.6 l 0,-93 -11.4,-0.6 0,-17 54.8,0 c 19.59992,1.3e-4 34.86657,5.20013 45.8,15.6 11.06655,10.40011 16.59988,25.80009 16.6,46.2 -1.2e-4,12.66673 -1.66679,23.73338 -5,33.2 -3.33345,9.33336 -7.86678,16.66669 -13.6,22 -11.46676,10.66667 -25.73341,16 -42.8,16 l -56.8,0 m 36.8,-113.6 0,94.4 20.4,0 c 11.46659,2e-5 20.39992,-4.13331 26.8,-12.4 6.3999,-8.26663 9.5999,-20.26661 9.6,-36 -10e-5,-30.66657 -13.00009,-45.99989 -39,-46 l -17.8,0"
           inkscape:connector-curvature="0" />
        <path
           id="path3829"
           style="fill:#f2f0eb;-inkscape-font-specification:Bree Serif"
           d="m 457.37354,664.00265 c 15.86658,1.4e-4 29.13323,5.60013 39.8,16.8 10.66654,11.20011 15.99987,28.33342 16,51.4 -1.3e-4,22.93338 -5.33346,40.33336 -16,52.2 -10.53344,11.73334 -24.86676,17.6 -43,17.6 -18.00005,0 -32.13337,-5.86666 -42.4,-17.6 -10.26668,-11.73331 -15.40001,-28.79996 -15.4,-51.2 -10e-6,-12.26659 1.79999,-22.99991 5.4,-32.2 3.59998,-9.33322 8.33331,-16.53322 14.2,-21.6 11.86662,-10.26654 25.66661,-15.39986 41.4,-15.4 m -36,68.2 c -4e-5,33.0667 11.46662,49.60002 34.4,49.6 12.26658,2e-5 20.86657,-5.06664 25.8,-15.2 4.53323,-8.93329 6.7999,-19.86661 6.8,-32.8 -10e-5,-11.59992 -2.0001,-22.26658 -6,-32 -2.26676,-5.33323 -5.73343,-9.53323 -10.4,-12.6 -4.53342,-3.06655 -10.46674,-4.59988 -17.8,-4.6 -7.3334,1.2e-4 -13.66672,2.40011 -19,7.2 -5.20005,4.8001 -8.80004,10.6001 -10.8,17.4 -2.00004,6.80008 -3.00004,14.46674 -3,23"
           inkscape:connector-curvature="0" />
        <path
           id="path3831"
           style="fill:#f2f0eb;-inkscape-font-specification:Bree Serif"
           d="m 603.33527,687.60265 c -1.46675,-2.53322 -6.93341,-3.79988 -16.4,-3.8 -12.40006,1.2e-4 -21.80005,4.20011 -28.2,12.6 -6.40004,8.4001 -9.60003,20.53342 -9.6,36.4 -3e-5,32.93337 12.33329,49.40002 37,49.4 0.39993,2e-5 2.13326,2e-5 5.2,0 3.19992,2e-5 6.19992,-0.39998 9,-1.2 2.79991,-0.93331 4.46658,-1.86665 5,-2.8 0.53324,-0.93331 0.79991,-2.39998 0.8,-4.4 l 0,-16 20.4,1.4 0,34.6 c -10.4001,5.46667 -23.60009,8.2 -39.6,8.2 -20.40005,0 -36.00004,-5.73333 -46.8,-17.2 -10.66668,-11.46664 -16.00001,-28.53329 -16,-51.2 -10e-6,-12.53325 1.79999,-23.46658 5.4,-32.8 3.59998,-9.33322 8.46664,-16.59988 14.6,-21.8 11.99996,-9.99987 26.26661,-14.99986 42.8,-15 13.33325,1.4e-4 25.86657,2.73347 37.6,8.2 l 0,34 -20.4,1.4 0,-15.6 c -9e-5,-1.99989 -0.26676,-3.46655 -0.8,-4.4"
           inkscape:connector-curvature="0" />
        <path
           id="path3833"
           style="fill:#f2f0eb;-inkscape-font-specification:Bree Serif"
           d="m 677.57669,781.40265 c 15.99994,2e-5 23.99993,-6.39997 24,-19.2 -7e-5,-6.66662 -3.5334,-11.59995 -10.6,-14.8 -3.73339,-1.86661 -8.60005,-3.59994 -14.6,-5.2 -5.8667,-1.59994 -10.80003,-3.19994 -14.8,-4.8 -3.86669,-1.73327 -7.80002,-4.0666 -11.8,-7 -7.86668,-5.86659 -11.8,-14.86658 -11.8,-27 0,-12.26656 4.19999,-21.86655 12.6,-28.8 8.53331,-7.06653 19.59996,-10.59986 33.2,-10.6 13.73327,1.4e-4 26.46659,2.73347 38.2,8.2 l 0,30 -20.4,1.4 0,-11.6 c -7e-5,-1.99989 -0.26673,-3.46655 -0.8,-4.4 -1.46673,-2.53322 -6.20006,-3.79988 -14.2,-3.8 -7.86671,1.2e-4 -13.73337,1.40012 -17.6,4.2 -3.73337,2.80011 -5.60003,7.13344 -5.6,13 -3e-5,4.26676 1.59997,8.00009 4.8,11.2 2.1333,2.13342 5.26663,3.93342 9.4,5.4 4.26662,1.33341 8.73328,2.73341 13.4,4.2 4.79994,1.46674 8.99993,3.06674 12.6,4.8 3.73326,1.73341 7.59992,4.1334 11.6,7.2 8.13324,6.00006 12.19991,15.26672 12.2,27.8 -9e-5,12.53336 -4.53342,22.40002 -13.6,29.6 -8.93341,7.2 -20.80006,10.8 -35.6,10.8 -14.6667,0 -27.86668,-2.73333 -39.6,-8.2 l 0,-31.6 20.4,-1.4 0,12.2 c -3e-5,2.00003 0.26664,3.46669 0.8,4.4 0.53331,0.93336 2.1333,1.86669 4.8,2.8 2.79997,0.80002 7.13329,1.20002 13,1.2"
           inkscape:connector-curvature="0" />
        <path
           id="path3835"
           transform="translate(0,252.36218)"
           d="m 701.5,578.03125 0,8.59375 c -7e-5,3.73347 -1.52715,5.62513 -4.59375,5.625 l -39.78125,0 -8.625,67.1875 c 31.86662,6e-5 47.81243,8.13964 47.8125,24.40625 -7e-5,13.06669 -6.80631,19.59377 -20.40625,19.59375 -9.60004,2e-5 -19.60003,-2.86039 -30,-8.59375 l -8,18.40625 c 4.26665,2.66667 9.93332,5 17,7 7.19997,2 14.53329,3 22,3 15.19994,0 26.39368,-3.94583 33.59375,-11.8125 7.19991,-7.86665 10.81241,-17.19997 10.8125,-28 -9e-5,-13.19995 -4.72092,-23.14577 -14.1875,-29.8125 -9.3334,-6.79992 -21.47297,-10.7145 -36.40625,-11.78125 l 4,-30.59375 45.78125,0 0,-31.8125 -19,-1.40625 z M 393.84375,589.625 c -13.20004,1.3e-4 -26.09169,3.13971 -38.625,9.40625 l 0,32 20.40625,1.40625 0,-14.1875 c -4e-5,-2.13323 0.19371,-3.69156 0.59375,-4.625 0.5333,-1.06656 2.00621,-1.98114 4.40625,-2.78125 2.53329,-0.79989 6.19995,-1.21864 11,-1.21875 4.93328,1.1e-4 8.93327,1.47303 12,4.40625 3.19993,2.93344 4.81243,6.73969 4.8125,11.40625 -7e-5,4.53343 -0.66673,8.47926 -2,11.8125 -1.20007,3.20008 -2.47923,5.72716 -3.8125,7.59375 -1.3334,1.73341 -4.05423,5.26049 -8.1875,10.59375 l -39.8125,50.1875 0,15.40625 79.8125,0 0,-19.78125 -50,0 32.1875,-38 c 11.33324,-13.73326 16.99991,-26.20616 17,-37.40625 -9e-5,-11.19989 -3.33342,-20.00613 -10,-26.40625 -6.66674,-6.5332 -16.58132,-9.81237 -29.78125,-9.8125 z m 100.0625,0 c -14.80004,1.3e-4 -26.41253,5.55846 -34.8125,16.625 -8.40001,11.06677 -12.59376,27.92717 -12.59375,50.59375 -10e-6,22.66671 3.80624,39.38753 11.40625,50.1875 7.59997,10.66667 19.12704,16 34.59375,16 15.4666,0 27.13325,-5.38749 35,-16.1875 7.86657,-10.93331 11.8124,-28.07287 11.8125,-51.40625 -10e-5,-43.86656 -15.13967,-65.81237 -45.40625,-65.8125 z m 92.78125,2.625 -36.40625,22.59375 8.8125,15.40625 23.40625,-12 0,78.59375 c -4e-5,2.40002 -0.47295,4.06669 -1.40625,5 -0.93337,0.93335 -2.40628,1.46044 -4.40625,1.59375 l -19.1875,1.1875 0,16.40625 69.59375,0 0,-17 -20.8125,-1 0,-110.78125 -19.59375,0 z m -93.59375,17 c 7.33327,1.1e-4 12.8916,3.44178 16.625,10.375 3.86659,6.93343 5.78117,19.21258 5.78125,36.8125 -8e-5,17.46672 -2.00008,29.74587 -6,36.8125 -3.86673,7.06669 -9.39381,10.59377 -16.59375,10.59375 -7.20005,2e-5 -12.72713,-3.41873 -16.59375,-10.21875 -3.73337,-6.9333 -5.59378,-18.98745 -5.59375,-36.1875 -3e-5,-17.33325 1.86038,-29.66657 5.59375,-37 3.86662,-7.46656 9.44787,-11.18739 16.78125,-11.1875 z"
           style="fill:url(#linearGradient3993);fill-opacity:1;stroke:none;-inkscape-font-specification:Bree Serif"
           inkscape:connector-curvature="0" />
      </g>
      <g
         id="text3771"
         style="font-size:100.33968353px;font-style:normal;font-variant:normal;font-weight:normal;font-stretch:normal;line-height:125%;letter-spacing:0px;word-spacing:0px;fill:url(#linearGradient4039);fill-opacity:1;stroke:none;font-family:Aleo;-inkscape-font-specification:Aleo"
         transform="translate(-904.42458,-434.64523)">
        <path
           id="path3844"
           style="font-weight:300;text-align:start;writing-mode:lr-tb;text-anchor:start;fill:url(#linearGradient3995);font-family:Aleo;-inkscape-font-specification:Aleo Light"
           d="m 860.94708,629.73579 c 1.30441,-0.10034 1.95662,-0.65221 1.95662,-1.80611 l 0,-1.95663 -8.42853,0 -3.56206,0 c -0.45153,-0.0502 -0.85289,0 -1.10374,0.15051 -0.25085,0.10034 -0.55187,0.35119 -0.80272,0.80272 l -27.89443,49.26678 c -0.25085,0.5017 -0.5017,1.0034 -0.75255,1.5051 -0.20067,0.5017 -0.40135,1.05357 -0.60203,1.55526 -0.35119,-1.05356 -0.80272,-2.05696 -1.30442,-3.01019 l -28.64698,-49.31695 c -0.25085,-0.45153 -0.55187,-0.70238 -0.85289,-0.80272 -0.25085,-0.10034 -0.6522,-0.15051 -1.10373,-0.15051 l -3.51189,0 -8.42853,0 0,1.95663 c 0,1.1539 0.6522,1.70577 1.95662,1.80611 0.15051,0 0.45153,0 0.95323,0 0.50169,0.0502 1.25424,0.0502 2.25764,0.10034 0.95322,0 2.05696,0.0502 3.26104,0.10034 l 0,63.01332 c -1.20408,0.0502 -2.30782,0.10034 -3.26104,0.10034 -1.0034,0.0502 -1.75595,0.0502 -2.25764,0.10034 -0.5017,0 -0.80272,0 -0.95323,0 -1.30442,0.10034 -1.95662,0.65221 -1.95662,1.80611 l 0,1.95663 8.42853,0 4.46511,0 8.67939,0 0,-1.95663 c 0,-1.1539 -0.65221,-1.70577 -2.0068,-1.80611 -0.15051,0 -0.45153,0 -1.00339,0 -0.5017,-0.0502 -1.30442,-0.0502 -2.30782,-0.10034 -1.05356,0 -2.1573,-0.0502 -3.36138,-0.10034 l 0,-56.49124 c 0,-0.90306 -0.0502,-1.85629 -0.15051,-2.80951 l 28.69715,49.61797 c 0.5017,0.90306 1.15391,1.30442 2.0068,1.30442 l 0.80272,0 c 0.85288,0 1.55526,-0.40136 2.00679,-1.30442 l 27.9446,-49.61797 c -0.10034,1.00339 -0.15051,1.90645 -0.15051,2.80951 l 0,56.49124 c -1.20407,0.0502 -2.30781,0.10034 -3.36138,0.10034 -1.00339,0.0502 -1.80611,0.0502 -2.30781,0.10034 -0.55187,0 -0.85289,0 -1.0034,0 -1.35458,0.10034 -2.00679,0.65221 -2.00679,1.80611 l 0,1.95663 8.67938,0 4.51529,0 8.42853,0 0,-1.95663 c 0,-1.1539 -0.65221,-1.70577 -1.95662,-1.80611 -0.15051,0 -0.45153,0 -0.95323,0 -0.5017,-0.0502 -1.25425,-0.0502 -2.25764,-0.10034 -0.95323,0 -2.05697,-0.0502 -3.26104,-0.10034 l 0,-63.01332 c 1.20407,-0.0502 2.30781,-0.10034 3.26104,-0.10034 1.00339,-0.0502 1.75594,-0.10034 2.25764,-0.10034 0.5017,0 0.80272,0 0.95323,0"
           inkscape:connector-curvature="0" />
        <path
           id="path3846"
           style="font-weight:300;text-align:start;writing-mode:lr-tb;text-anchor:start;fill:url(#linearGradient3997);font-family:Aleo;-inkscape-font-specification:Aleo Light"
           d="m 939.24652,692.5986 -3.26104,-0.30102 -27.14188,-66.3747 -5.11732,0 -27.14189,66.3747 -3.26104,0.30102 c -1.30441,0.15051 -1.90645,0.85289 -1.90645,2.0068 l 0,2.30781 3.26104,0 2.05696,0 1.85629,0 0.70237,0 9.43193,0 0,-2.30781 c 0,-1.25425 -0.80272,-1.95663 -2.30781,-2.0068 -0.15051,-0.0502 -0.35119,-0.0502 -0.65221,-0.0502 -0.25085,-0.0502 -0.75255,-0.0502 -1.40475,-0.10034 -0.65221,-0.0502 -1.5051,-0.10034 -2.55867,-0.15051 l 7.02378,-17.35876 0.5017,-1.25425 33.86464,0 0.5017,1.25425 7.02378,17.35876 c -1.0034,0.0502 -1.85628,0.10034 -2.50849,0.15051 -0.70238,0.0502 -1.15391,0.0502 -1.45493,0.10034 -0.25085,0 -0.45153,0 -0.60203,0.0502 -1.55527,0.0502 -2.30782,0.75255 -2.30782,2.0068 l 0,2.30781 9.43193,0 0.65221,0 1.90645,0 2.05697,0 3.26104,0 0,-2.30781 c 0,-1.15391 -0.65221,-1.85629 -1.90646,-2.0068 m -34.36634,-57.29396 c 0.25085,-0.60204 0.45153,-1.25424 0.70238,-1.95662 0.25085,-0.70238 0.45153,-1.5051 0.70238,-2.30781 0.20068,0.80271 0.45153,1.55526 0.70238,2.30781 0.25084,0.70238 0.45152,1.35458 0.70237,1.90645 l 13.99739,34.61719 -30.80428,0 13.99738,-34.56702"
           inkscape:connector-curvature="0" />
        <path
           id="path3848"
           style="font-weight:300;text-align:start;writing-mode:lr-tb;text-anchor:start;fill:url(#linearGradient3999);font-family:Aleo;-inkscape-font-specification:Aleo Light"
           d="m 990.10307,625.97305 -0.5017,0 -4.01359,0 -0.75255,0 -10.03396,0 0,1.95663 c 0,1.1539 0.65221,1.70577 1.95662,1.80611 0.15051,0 0.40136,0 0.80272,0 0.35119,0 0.90306,0.0502 1.70577,0.0502 0.85289,0.0502 1.75595,0.10034 2.75934,0.10034 l -18.61301,29.95139 c -0.45153,0.75255 -0.85289,1.5051 -1.20407,2.20748 -0.35119,0.70238 -0.65221,1.45492 -0.90306,2.20747 -0.25085,-0.75255 -0.55187,-1.50509 -0.90306,-2.20747 -0.30102,-0.70238 -0.70238,-1.45493 -1.20407,-2.20748 L 940.58543,629.8863 c 1.0034,0 1.90646,-0.0502 2.70918,-0.10034 0.80271,0 1.40475,-0.0502 1.75594,-0.0502 0.35119,0 0.60204,0 0.75255,0 1.30441,-0.10034 2.00679,-0.65221 2.00679,-1.80611 l 0,-1.95663 -10.08414,0 -0.80271,0 -3.96342,0 -0.5017,0 -3.1607,0 0,1.95663 c 0,1.1539 0.65221,1.70577 1.95662,1.80611 1.75595,0.0502 2.96003,0.10034 3.71257,0.15051 l 23.73034,37.77789 0,25.2856 c -1.20408,0.0502 -2.25765,0.10034 -3.26104,0.10034 -1.0034,0.0502 -1.75595,0.0502 -2.20748,0.10034 -0.50169,0 -0.80271,0 -0.95322,0 -1.35459,0.10034 -2.0068,0.65221 -2.0068,1.80611 l 0,1.95663 8.42854,0 5.16749,0 8.42853,0 0,-1.95663 c 0,-1.1539 -0.6522,-1.70577 -1.95662,-1.80611 -0.15051,0 -0.45153,0 -0.95323,0 -0.50169,-0.0502 -1.25424,-0.0502 -2.25764,-0.10034 -0.95323,0 -2.05696,-0.0502 -3.26104,-0.10034 l 0,-25.33577 23.78051,-37.72772 c 0.75254,-0.0502 2.00679,-0.10034 3.66239,-0.15051 1.35459,-0.10034 2.0068,-0.65221 2.0068,-1.80611 l 0,-1.95663 -3.21087,0"
           inkscape:connector-curvature="0" />
        <path
           id="path3850"
           style="font-weight:300;text-align:start;writing-mode:lr-tb;text-anchor:start;fill:url(#linearGradient4001);font-family:Aleo;-inkscape-font-specification:Aleo Light"
           d="m 1062.622,696.91321 0,-1.60544 c 0,-0.95322 -0.5519,-1.40475 -1.6556,-1.45492 -0.7024,-0.0502 -5.318,-0.30102 -13.897,-0.70238 l 0,-67.52861 -3.7126,0 -20.4693,18.16149 1.4549,2.00679 c 0.301,0.40136 0.7024,0.60204 1.3044,0.60204 0.4516,0 0.8529,-0.15051 1.2041,-0.45153 l 15.653,-13.89705 c -0.1003,1.25425 -0.1505,2.45833 -0.2007,3.61223 l 0,57.49464 c 0,0 -1.1539,0.0502 -3.4617,0.15051 -2.3078,0.10034 -4.6658,0.25085 -7.0739,0.35119 -2.4584,0.10034 -3.813,0.15051 -4.114,0.20068 -1.1037,0.0502 -1.6556,0.5017 -1.6556,1.45492 l 0,1.60544 36.624,0"
           inkscape:connector-curvature="0" />
        <path
           id="path3852"
           style="font-weight:300;text-align:start;writing-mode:lr-tb;text-anchor:start;fill:url(#linearGradient4003);font-family:Aleo;-inkscape-font-specification:Aleo Light"
           d="m 1074.68,625.97305 -5.1173,0 0,3.06036 0,10.38516 2.4081,0 c 1.3546,0 2.1072,-0.80272 2.1573,-2.40815 0.05,-0.60204 0.1505,-2.80952 0.3512,-6.67259 l 37.2762,0 c -0.602,0.75254 -1.1037,1.50509 -1.5552,2.40815 l -32.7108,64.16723 3.2611,0 c 0.7023,0 1.3044,-0.15051 1.7559,-0.5017 0.4515,-0.30102 0.8027,-0.75255 1.1037,-1.30442 l 32.5101,-64.46824 c 0.2007,-0.30102 0.3512,-0.65221 0.4515,-1.05357 0.1004,-0.40136 0.1505,-0.90306 0.1505,-1.50509 l 0,-2.10714 -42.0423,0"
           inkscape:connector-curvature="0" />
        <path
           id="path3854"
           style="font-weight:300;text-align:start;writing-mode:lr-tb;text-anchor:start;fill:url(#linearGradient4005);font-family:Aleo;-inkscape-font-specification:Aleo Light"
           d="m 1127.4367,665.10553 0,4.06376 23.329,0 0,-4.06376 -23.329,0"
           inkscape:connector-curvature="0" />
        <path
           id="path3856"
           style="font-weight:300;text-align:start;writing-mode:lr-tb;text-anchor:start;fill:url(#linearGradient4007);font-family:Aleo;-inkscape-font-specification:Aleo Light"
           d="m 1200.3931,696.91321 0,-1.60544 c 0,-0.95322 -0.5519,-1.40475 -1.6556,-1.45492 -0.7024,-0.0502 -5.318,-0.30102 -13.8971,-0.70238 l 0,-67.52861 -3.7125,0 -20.4693,18.16149 1.4549,2.00679 c 0.301,0.40136 0.7024,0.60204 1.3044,0.60204 0.4515,0 0.8529,-0.15051 1.2041,-0.45153 l 15.653,-13.89705 c -0.1004,1.25425 -0.1505,2.45833 -0.2007,3.61223 l 0,57.49464 c 0,0 -1.1539,0.0502 -3.4617,0.15051 -2.3078,0.10034 -4.6658,0.25085 -7.074,0.35119 -2.4583,0.10034 -3.8129,0.15051 -4.1139,0.20068 -1.1037,0.0502 -1.6556,0.5017 -1.6556,1.45492 l 0,1.60544 36.624,0"
           inkscape:connector-curvature="0" />
        <path
           id="path3858"
           style="font-weight:300;text-align:start;writing-mode:lr-tb;text-anchor:start;fill:url(#linearGradient4009);font-family:Aleo;-inkscape-font-specification:Aleo Light"
           d="m 1227.5522,666.71096 c 3.1105,0.0502 6.0706,-0.55187 8.8299,-1.75594 2.7593,-1.15391 5.1173,-2.80951 7.074,-4.96682 -0.7024,1.20408 -1.5051,2.40816 -2.358,3.6624 -0.8529,1.25425 -1.756,2.55867 -2.7594,3.96342 l -20.971,29.29919 4.3146,0 c 1.1038,0 1.9567,-0.35119 2.4584,-1.15391 l 18.613,-27.29239 c 1.3546,-2.00679 2.5586,-3.86308 3.6624,-5.61902 1.0535,-1.75595 1.9566,-3.46173 2.7091,-5.1675 0.7526,-1.6556 1.3045,-3.31121 1.7058,-5.01698 0.4014,-1.65561 0.5519,-3.41155 0.6021,-5.26784 0,-3.3112 -0.5519,-6.37157 -1.6055,-9.08074 -1.0535,-2.70917 -2.5085,-5.06715 -4.4149,-7.02378 -1.9065,-1.95662 -4.1641,-3.46172 -6.7729,-4.56545 -2.6089,-1.05357 -5.5187,-1.60544 -8.6293,-1.60544 -3.3112,0 -6.3214,0.55187 -9.0807,1.65561 -2.7593,1.10373 -5.1173,2.55866 -7.1241,4.46512 -2.0068,1.90645 -3.6122,4.16409 -4.716,6.77292 -1.1037,2.60883 -1.6556,5.41835 -1.6556,8.47871 0,3.06035 0.5017,5.8197 1.5051,8.32819 1.0034,2.50849 2.358,4.61563 4.1641,6.42174 1.8061,1.75594 3.9133,3.11053 6.3716,4.06376 2.4583,0.95322 5.1675,1.40475 8.0773,1.40475 m 19.2652,-20.16827 c 0,2.00679 -0.4013,3.96342 -1.204,5.92004 -0.8028,1.95662 -1.9567,3.71257 -3.4618,5.318 -1.5552,1.55526 -3.4617,2.80951 -5.6692,3.76274 -2.2074,1.0034 -4.7661,1.45492 -7.5756,1.45492 -2.5085,0.0502 -4.8163,-0.35118 -6.8733,-1.1539 -2.0569,-0.75255 -3.8129,-1.85629 -5.2678,-3.31121 -1.4549,-1.45492 -2.5587,-3.21087 -3.3614,-5.318 -0.8027,-2.10714 -1.2041,-4.46512 -1.2041,-7.07395 0,-2.50849 0.4014,-4.76614 1.3045,-6.87327 0.8528,-2.10713 2.0569,-3.86308 3.6122,-5.41834 1.5553,-1.45493 3.4115,-2.65901 5.619,-3.51189 2.2075,-0.80272 4.6156,-1.20408 7.2245,-1.25425 2.4081,0 4.6658,0.45153 6.7227,1.30442 2.057,0.85288 3.8631,2.05696 5.3682,3.56206 1.5051,1.50509 2.659,3.36138 3.5119,5.51868 0.8027,2.10713 1.2542,4.46512 1.2542,7.07395"
           inkscape:connector-curvature="0" />
        <path
           id="path3860"
           style="font-weight:300;text-align:start;writing-mode:lr-tb;text-anchor:start;fill:url(#linearGradient4011);font-family:Aleo;-inkscape-font-specification:Aleo Light"
           d="m 820.46001,731.78125 c -4.26443,-3.6624 -10.53567,-5.46851 -18.86386,-5.46851 l -17.25842,0 -8.42853,0 0,1.95662 c 0,1.1539 0.6522,1.70577 1.95662,1.80611 0.15051,0 0.45153,0 0.95323,0 0.50169,0.0502 1.25424,0.0502 2.25764,0.10034 0.95322,0 2.05696,0.0502 3.26104,0.10034 l 0,63.01332 c -1.20408,0.0502 -2.30782,0.10034 -3.26104,0.10034 -1.0034,0.0502 -1.75595,0.0502 -2.25764,0.10034 -0.5017,0 -0.80272,0 -0.95323,0 -1.30442,0.10034 -1.95662,0.65221 -1.95662,1.80612 l 0,1.95662 8.42853,0 5.11732,0 8.42854,0 0,-1.95662 c 0,-1.15391 -0.65221,-1.70578 -1.95663,-1.80612 -0.15051,0 -0.5017,0 -0.95323,0 -0.50169,-0.0502 -1.25424,-0.0502 -2.25764,-0.10034 -0.95322,0 -2.05696,-0.0502 -3.26104,-0.10034 l 0,-24.63339 12.1411,0 c 3.91325,0 7.42514,-0.5017 10.53567,-1.55526 3.11053,-1.05357 5.76953,-2.5085 7.92684,-4.41495 2.20747,-1.90645 3.86307,-4.1641 5.01698,-6.72276 1.15391,-2.659 1.70577,-5.46851 1.70577,-8.57904 0,-6.77292 -2.10713,-11.9906 -6.3214,-15.60282 m -0.15051,22.42592 c -0.95322,2.10713 -2.25764,3.91325 -3.96341,5.41834 -1.75595,1.55526 -3.81291,2.75934 -6.3214,3.61223 -2.45832,0.90306 -5.26784,1.30441 -8.42854,1.30441 l -12.1411,0 0,-34.16566 12.1411,0 c 6.67259,0 11.68958,1.45493 15.05096,4.36478 3.36137,2.96002 5.01698,7.17429 5.01698,12.59263 0,2.50849 -0.45153,4.76614 -1.35459,6.87327"
           inkscape:connector-curvature="0" />
        <path
           id="path3862"
           style="font-weight:300;text-align:start;writing-mode:lr-tb;text-anchor:start;fill:url(#linearGradient4013);font-family:Aleo;-inkscape-font-specification:Aleo Light"
           d="m 901.81041,761.73264 c 0,-5.41833 -0.85289,-10.38516 -2.45832,-14.85027 -1.6556,-4.46511 -3.96342,-8.27803 -6.92344,-11.48889 -3.01019,-3.1607 -6.57225,-5.61903 -10.68617,-7.3248 -4.1641,-1.70577 -8.77973,-2.55866 -13.79671,-2.55866 -5.01698,0 -9.58244,0.85289 -13.69637,2.60883 -4.16409,1.70577 -7.72616,4.1641 -10.68617,7.3248 -3.01019,3.16069 -5.31801,6.97361 -6.97361,11.43872 -1.6556,4.46511 -2.45832,9.43194 -2.45832,14.90044 0,5.46851 0.80272,10.43533 2.45832,14.90045 1.6556,4.46511 3.96342,8.27802 6.97361,11.43872 2.96001,3.1607 6.52208,5.61902 10.68617,7.3248 4.11393,1.70577 8.67939,2.60883 13.69637,2.60883 5.01698,0 9.63261,-0.90306 13.79671,-2.60883 4.11392,-1.70578 7.67598,-4.1641 10.68617,-7.3248 2.96002,-3.1607 5.26784,-6.97361 6.92344,-11.43872 1.60543,-4.46512 2.40815,-9.43194 2.45832,-14.95062 m -5.318,0.0502 c 0,4.96681 -0.70238,9.43194 -2.05696,13.34518 -1.40476,3.91325 -3.31122,7.27463 -5.81971,9.9838 -2.50849,2.75934 -5.46851,4.86648 -8.9804,6.3214 -3.51188,1.40475 -7.42514,2.1573 -11.68957,2.1573 -4.21426,0 -8.07735,-0.75255 -11.58923,-2.1573 -3.51189,-1.45492 -6.52209,-3.56206 -9.03058,-6.3214 -2.50849,-2.70917 -4.46511,-6.07055 -5.86987,-9.9838 -1.40475,-3.91324 -2.05696,-8.37837 -2.05696,-13.39535 0,-4.91664 0.65221,-9.38176 2.05696,-13.34517 1.40476,-3.91325 3.36138,-7.27463 5.86987,-10.03397 2.50849,-2.70917 5.51869,-4.81631 9.03058,-6.27123 3.51188,-1.45493 7.37497,-2.20748 11.58923,-2.20748 4.26443,0 8.17769,0.75255 11.68957,2.20748 3.46172,1.45492 6.47191,3.56206 8.9804,6.27123 2.50849,2.75934 4.41495,6.12072 5.76954,10.03397 1.40475,3.96341 2.10713,8.42853 2.10713,13.39534"
           inkscape:connector-curvature="0" />
        <path
           id="path3864"
           style="font-weight:300;text-align:start;writing-mode:lr-tb;text-anchor:start;fill:url(#linearGradient4015);font-family:Aleo;-inkscape-font-specification:Aleo Light"
           d="m 968.32622,793.49015 c -0.15051,0 -0.35119,0 -0.65221,0 -0.30102,0 -0.75255,-0.0502 -1.30442,-0.0502 -0.60203,0 -1.20407,-0.0502 -1.80611,-0.0502 l -21.32218,-26.8408 c -0.65221,-0.80272 -1.35459,-1.5051 -2.15731,-2.0068 3.11053,-0.30101 5.86988,-1.00339 8.37837,-2.10713 2.45832,-1.10373 4.56546,-2.45832 6.3214,-4.1641 1.75594,-1.70577 3.11053,-3.6624 4.06376,-5.92004 0.90305,-2.20747 1.40475,-4.71596 1.40475,-7.42513 0,-6.07055 -2.05697,-10.73635 -6.07055,-13.89705 -4.06375,-3.1607 -10.18449,-4.71596 -18.36216,-4.71596 l -17.25843,0 -8.42853,0 0,1.95662 c 0,1.1539 0.65221,1.70577 1.95662,1.80611 0.15051,0 0.45153,0 0.95323,0 0.5017,0 1.25425,0.0502 2.25764,0.10034 0.95323,0 2.05697,0.0502 3.26104,0.10034 l 0,63.01332 c -1.20407,0.0502 -2.30781,0.10034 -3.26104,0.10034 -1.00339,0.0502 -1.75594,0.0502 -2.25764,0.10034 -0.5017,0 -0.80272,0 -0.95323,0 -1.30441,0.10034 -1.95662,0.65221 -1.95662,1.80612 l 0,1.95662 8.42853,0 5.11733,0 8.42853,0 0,-1.95662 c 0,-1.15391 -0.65221,-1.70578 -2.00679,-1.80612 -0.10034,0 -0.45153,0 -0.90306,0 -0.5017,-0.0502 -1.25425,-0.0502 -2.25764,-0.10034 -1.0034,0 -2.05697,-0.0502 -3.26104,-0.10034 l 0,-28.14528 8.42853,0 c 1.35458,0 2.35798,0.15051 3.01019,0.45153 0.65221,0.30102 1.25425,0.85289 1.85628,1.55527 l 22.72694,28.79749 c 0.35119,0.50169 0.70238,0.80271 1.10374,1.00339 0.40136,0.20068 0.85289,0.30102 1.40475,0.30102 l 0.5017,0 3.96342,0 2.60883,0 0,-1.95662 c 0,-1.15391 -0.65221,-1.70578 -1.95662,-1.80612 m -32.15887,-32.15887 -11.48889,0 0,-30.95479 12.1411,0 c 6.32139,0 11.13771,1.20408 14.44891,3.6624 3.31121,2.40815 4.96682,6.1709 4.96682,11.23805 0,2.45832 -0.45153,4.66579 -1.35459,6.62241 -0.90306,2.0068 -2.25764,3.6624 -3.96342,5.06716 -1.70577,1.45492 -3.81291,2.50849 -6.3214,3.26104 -2.50849,0.75255 -5.318,1.10373 -8.42853,1.10373"
           inkscape:connector-curvature="0" />
        <path
           id="path3866"
           style="font-weight:300;text-align:start;writing-mode:lr-tb;text-anchor:start;fill:url(#linearGradient4017);font-family:Aleo;-inkscape-font-specification:Aleo Light"
           d="m 1030.3706,726.31274 -1.4047,0 -52.277,0 -1.45492,0 -0.65221,0 0,14.69976 2.40815,0 c 1.35459,0 2.10713,-0.80272 2.1573,-2.40815 0.0502,-0.70238 0.20068,-3.36139 0.40136,-7.97701 l 20.77032,0 0,62.66213 c -1.20408,0.0502 -2.30782,0.10034 -3.26104,0.10034 -1.0034,0.0502 -1.75595,0.0502 -2.25765,0.10034 -0.45152,0 -0.80271,0 -0.95322,0 -1.30442,0.10034 -1.95663,0.65221 -1.95663,1.80612 l 0,1.95662 8.42854,0 5.1173,0 8.4787,0 0,-1.95662 c 0,-1.15391 -0.7024,-1.70578 -2.0068,-1.80612 -0.1505,0 -0.4515,0 -0.9532,0 -0.5017,-0.0502 -1.2542,-0.0502 -2.2075,-0.10034 -1.0034,0 -2.1071,-0.0502 -3.3112,-0.10034 l 0,-62.61196 20.67,0 c 0.2508,5.06715 0.4014,7.72616 0.4014,7.92684 0.05,1.60543 0.8027,2.40815 2.1573,2.40815 l 2.4583,0 0,-14.69976 -0.7526,0"
           inkscape:connector-curvature="0" />
        <path
           id="path3868"
           style="font-weight:300;text-align:start;writing-mode:lr-tb;text-anchor:start;fill:url(#linearGradient4019);font-family:Aleo;-inkscape-font-specification:Aleo Light"
           d="m 1084.7093,784.05822 c -1.3546,0 -2.057,0.80272 -2.1573,2.40816 0,0.1505 -0.05,0.40135 -0.1004,0.85288 -0.05,0.40136 -0.1003,1.05357 -0.2007,2.0068 -0.1003,0.95322 -0.1505,2.1573 -0.2508,3.56206 l -29.3494,0 0,-62.61197 c 1.2041,-0.0502 2.3078,-0.10034 3.2611,-0.10034 1.0034,-0.0502 1.7559,-0.0502 2.2576,-0.10034 0.4515,0 0.8027,0 0.9532,0 1.3045,-0.10034 1.9567,-0.65221 1.9567,-1.80611 l 0,-1.95662 -8.4286,0 -5.1173,0 -8.4285,0 0,1.95662 c 0,1.1539 0.6522,1.70577 1.9566,1.80611 0.1505,0 0.4515,0 0.9532,0 0.5017,0.0502 1.2543,0.0502 2.2577,0.10034 0.9532,0 2.0569,0.0502 3.261,0.10034 l 0,63.01332 c -1.2041,0.0502 -2.3078,0.10034 -3.261,0.10034 -1.0034,0.0502 -1.756,0.0502 -2.2577,0.10034 -0.5017,0 -0.8027,0 -0.9532,0 -1.3044,0.10034 -1.9566,0.65221 -1.9566,1.80612 l 0,1.95662 8.4285,0 37.8782,0 0.9031,0 0.8529,0 0,-1.85628 0,-4.06376 0,-7.27463 -1.9566,0 -0.5017,0"
           inkscape:connector-curvature="0" />
        <path
           id="path3870"
           style="font-weight:300;text-align:start;writing-mode:lr-tb;text-anchor:start;fill:url(#linearGradient4021);font-family:Aleo;-inkscape-font-specification:Aleo Light"
           d="m 1164.0309,792.93829 -3.261,-0.30102 -27.1419,-66.3747 -5.1173,0 -27.1419,66.3747 -3.261,0.30102 c -1.3045,0.1505 -1.9065,0.85288 -1.9065,2.00679 l 0,2.30781 3.261,0 2.057,0 1.8563,0 0.7024,0 9.4319,0 0,-2.30781 c 0,-1.25425 -0.8027,-1.95663 -2.3078,-2.00679 -0.1505,-0.0502 -0.3512,-0.0502 -0.6522,-0.0502 -0.2509,-0.0502 -0.7526,-0.0502 -1.4048,-0.10034 -0.6522,-0.0502 -1.5051,-0.10034 -2.5586,-0.15051 l 7.0237,-17.35877 0.5017,-1.25425 33.8647,0 0.5017,1.25425 7.0238,17.35877 c -1.0034,0.0502 -1.8563,0.10034 -2.5085,0.15051 -0.7024,0.0502 -1.1539,0.0502 -1.455,0.10034 -0.2508,0 -0.4515,0 -0.602,0.0502 -1.5553,0.0502 -2.3078,0.75254 -2.3078,2.00679 l 0,2.30781 9.4319,0 0.6522,0 1.9065,0 2.0569,0 3.2611,0 0,-2.30781 c 0,-1.15391 -0.6522,-1.85629 -1.9065,-2.00679 m -34.3663,-57.29396 c 0.2508,-0.60204 0.4515,-1.25425 0.7024,-1.95663 0.2508,-0.70238 0.4515,-1.50509 0.7023,-2.30781 0.2007,0.80272 0.4516,1.55527 0.7024,2.30781 0.2509,0.70238 0.4516,1.35459 0.7024,1.90646 l 13.9974,34.61719 -30.8043,0 13.9974,-34.56702"
           inkscape:connector-curvature="0" />
        <path
           id="path3872"
           style="font-weight:300;text-align:start;writing-mode:lr-tb;text-anchor:start;fill:url(#linearGradient4023);font-family:Aleo;-inkscape-font-specification:Aleo Light"
           d="m 1238.1302,726.31274 -4.5153,0 -8.6794,0 0,1.95662 c 0,1.1539 0.6523,1.70577 2.0068,1.80611 0.1505,0 0.4516,0 1.0034,0 0.5017,0.0502 1.3045,0.0502 2.3078,0.10034 1.0536,0 2.1574,0.0502 3.3614,0.10034 l 0,55.53802 c 0,0.95322 0.05,1.90645 0.1505,2.90985 l -45.9555,-61.45806 c -0.3011,-0.40136 -0.6021,-0.70238 -0.8529,-0.80272 -0.2509,-0.10033 -0.6522,-0.1505 -1.1038,-0.20067 l -2.5085,0 -8.4285,0 0,2.00679 c 0,1.1539 0.6522,1.70577 1.9566,1.80611 0.1505,0 0.4516,0 0.9533,0 0.5017,0 1.2542,0.0502 2.2576,0.10034 0.9532,0 2.057,0.0502 3.261,0.10034 l 0,63.01332 c -1.204,0.0502 -2.3078,0.10034 -3.261,0.10034 -1.0034,0.0502 -1.7559,0.0502 -2.2576,0.10034 -0.5017,0 -0.8028,0 -0.9533,0 -1.3044,0.10034 -1.9566,0.65221 -1.9566,1.80612 l 0,1.95662 8.4285,0 4.4652,0 8.6793,0 0,-1.95662 c 0,-1.15391 -0.6522,-1.70578 -2.0067,-1.80612 -0.1506,0 -0.4516,0 -1.0034,0 -0.5519,-0.0502 -1.3045,-0.0502 -2.358,-0.10034 -1.0034,0 -2.1072,-0.0502 -3.3112,-0.10034 l 0,-55.73869 c 0,-0.90306 -0.05,-1.85629 -0.1505,-2.85968 l 46.1562,61.55839 c 0.4515,0.70238 1.1037,1.0034 1.8563,1.0034 l 2.4583,0 0,-66.97674 c 1.2041,-0.0502 2.3078,-0.10034 3.2611,-0.10034 1.0034,-0.0502 1.7559,-0.0502 2.2576,-0.10034 0.4515,0 0.8027,0 0.9532,0 1.3044,-0.10034 1.9566,-0.65221 1.9566,-1.80611 l 0,-1.95662 -8.4285,0"
           inkscape:connector-curvature="0" />
        <path
           id="path3874"
           style="font-weight:300;text-align:start;writing-mode:lr-tb;text-anchor:start;fill:url(#linearGradient4025);font-family:Aleo;-inkscape-font-specification:Aleo Light"
           d="m 1318.5587,747.03288 c -1.6556,-4.41494 -3.9634,-8.12752 -6.9234,-11.18787 -2.96,-3.11053 -6.5221,-5.46852 -10.6862,-7.07395 -4.1641,-1.65561 -8.7295,-2.45832 -13.7967,-2.45832 l -24.6334,0 -8.4285,0 0,1.95662 c 0,1.1539 0.6522,1.70577 1.9566,1.80611 0.1505,0 0.4516,0 0.9533,0 0.5016,0 1.2542,0.0502 2.2576,0.10034 0.9532,0 2.057,0.0502 3.261,0.10034 l 0,63.01332 c -1.204,0.0502 -2.3078,0.10034 -3.261,0.10034 -1.0034,0.0502 -1.756,0.0502 -2.2576,0.10034 -0.5017,0 -0.8028,0 -0.9533,0 -1.3044,0.10034 -1.9566,0.65221 -1.9566,1.80612 l 0,1.95662 8.4285,0 24.6334,0 c 5.0672,0 9.6326,-0.80272 13.7967,-2.40815 4.1641,-1.6556 7.7262,-4.01359 10.6862,-7.12412 2.96,-3.06036 5.2678,-6.77293 6.9234,-11.18787 1.6556,-4.36477 2.4584,-9.28143 2.4584,-14.74994 0,-5.4685 -0.8028,-10.38516 -2.4584,-14.74993 m -4.9166,28.04494 c -1.3546,3.86308 -3.3112,7.12412 -5.7695,9.83329 -2.5085,2.659 -5.5187,4.6658 -9.0306,6.12072 -3.5119,1.40476 -7.4251,2.10713 -11.6896,2.10713 l -19.4659,0 0,-62.66213 19.4659,0 c 4.2645,0 8.1777,0.70238 11.6896,2.10714 3.5119,1.40475 6.5221,3.41155 9.0306,6.12072 2.4583,2.659 4.4149,5.92004 5.7695,9.83329 1.3546,3.86307 2.057,8.27802 2.057,13.24483 0,4.96681 -0.7024,9.38177 -2.057,13.29501"
           inkscape:connector-curvature="0" />
        <path
           id="path3876"
           style="font-weight:300;text-align:start;writing-mode:lr-tb;text-anchor:start;fill:url(#linearGradient4027);font-family:Aleo;-inkscape-font-specification:Aleo Light"
           d="m 842.23373,862.07233 c 0,-5.41834 -0.85289,-10.38516 -2.45833,-14.85028 -1.6556,-4.46511 -3.96342,-8.27802 -6.92343,-11.48889 -3.01019,-3.1607 -6.57226,-5.61902 -10.68618,-7.3248 -4.16409,-1.70577 -8.77973,-2.55866 -13.79671,-2.55866 -5.01698,0 -9.58244,0.85289 -13.69636,2.60883 -4.1641,1.70578 -7.72616,4.1641 -10.68618,7.3248 -3.01019,3.1607 -5.31801,6.97361 -6.97361,11.43872 -1.6556,4.46512 -2.45832,9.43194 -2.45832,14.90045 0,5.4685 0.80272,10.43533 2.45832,14.90044 1.6556,4.46511 3.96342,8.27803 6.97361,11.43872 2.96002,3.1607 6.52208,5.61903 10.68618,7.3248 4.11392,1.70577 8.67938,2.60883 13.69636,2.60883 5.01698,0 9.63262,-0.90306 13.79671,-2.60883 4.11392,-1.70577 7.67599,-4.1641 10.68618,-7.3248 2.96001,-3.16069 5.26783,-6.97361 6.92343,-11.43872 1.60544,-4.46511 2.40816,-9.43194 2.45833,-14.95061 m -5.31801,0.0502 c 0,4.96681 -0.70238,9.43193 -2.05696,13.34517 -1.40476,3.91325 -3.31121,7.27463 -5.8197,9.9838 -2.50849,2.75934 -5.46852,4.86648 -8.9804,6.3214 -3.51189,1.40476 -7.42515,2.15731 -11.68958,2.15731 -4.21426,0 -8.07735,-0.75255 -11.58923,-2.15731 -3.51189,-1.45492 -6.52208,-3.56206 -9.03057,-6.3214 -2.50849,-2.70917 -4.46512,-6.07055 -5.86987,-9.9838 -1.40476,-3.91324 -2.05697,-8.37836 -2.05697,-13.39534 0,-4.91664 0.65221,-9.38177 2.05697,-13.34518 1.40475,-3.91324 3.36138,-7.27463 5.86987,-10.03397 2.50849,-2.70917 5.51868,-4.81631 9.03057,-6.27123 3.51188,-1.45492 7.37497,-2.20747 11.58923,-2.20747 4.26443,0 8.17769,0.75255 11.68958,2.20747 3.46171,1.45492 6.47191,3.56206 8.9804,6.27123 2.50849,2.75934 4.41494,6.12073 5.76953,10.03397 1.40475,3.96341 2.10713,8.42854 2.10713,13.39535"
           inkscape:connector-curvature="0" />
        <path
           id="path3878"
           style="font-weight:300;text-align:start;writing-mode:lr-tb;text-anchor:start;fill:url(#linearGradient4029);font-family:Aleo;-inkscape-font-specification:Aleo Light"
           d="m 908.74953,893.82984 c -0.15051,0 -0.35119,0 -0.65221,0 -0.30102,0 -0.75255,-0.0502 -1.30442,-0.0502 -0.60203,0 -1.20407,-0.0502 -1.80611,-0.0502 l -21.32218,-26.84087 c -0.65221,-0.80271 -1.35459,-1.50509 -2.15731,-2.00679 3.11053,-0.30102 5.86988,-1.0034 8.37837,-2.10714 2.45832,-1.10373 4.56545,-2.45832 6.3214,-4.16409 1.75594,-1.70577 3.11053,-3.6624 4.06375,-5.92004 0.90306,-2.20747 1.40476,-4.71597 1.40476,-7.42514 0,-6.07054 -2.05697,-10.73635 -6.07055,-13.89705 -4.06375,-3.16069 -10.18449,-4.71596 -18.36216,-4.71596 l -17.25843,0 -8.42853,0 0,1.95662 c 0,1.15391 0.65221,1.70578 1.95662,1.80612 0.15051,0 0.45153,0 0.95323,0 0.5017,0 1.25425,0.0502 2.25764,0.10034 0.95323,0 2.05697,0.0502 3.26104,0.10034 l 0,63.01332 c -1.20407,0.0502 -2.30781,0.10034 -3.26104,0.10034 -1.00339,0.0502 -1.75594,0.0502 -2.25764,0.10034 -0.5017,0 -0.80272,0 -0.95323,0 -1.30441,0.10034 -1.95662,0.65221 -1.95662,1.80611 l 0,1.95663 8.42853,0 5.11733,0 8.42853,0 0,-1.95663 c 0,-1.1539 -0.65221,-1.70577 -2.00679,-1.80611 -0.10034,0 -0.45153,0 -0.90306,0 -0.5017,-0.0502 -1.25425,-0.0502 -2.25764,-0.10034 -1.0034,0 -2.05697,-0.0502 -3.26104,-0.10034 l 0,-28.14528 8.42853,0 c 1.35458,0 2.35798,0.15051 3.01019,0.45152 0.65221,0.30102 1.25425,0.85289 1.85628,1.55527 l 22.72694,28.79749 c 0.35119,0.5017 0.70238,0.80272 1.10374,1.0034 0.40136,0.20068 0.85289,0.30102 1.40475,0.30102 l 0.5017,0 3.96342,0 2.60883,0 0,-1.95663 c 0,-1.1539 -0.65221,-1.70577 -1.95662,-1.80611 m -32.15887,-32.15887 -11.48889,0 0,-30.95479 12.1411,0 c 6.32139,0 11.13771,1.20407 14.44891,3.66239 3.31121,2.40815 4.96682,6.1709 4.96682,11.23805 0,2.45832 -0.45153,4.6658 -1.35459,6.62242 -0.90306,2.00679 -2.25764,3.6624 -3.96342,5.06715 -1.70577,1.45493 -3.81291,2.50849 -6.3214,3.26104 -2.50849,0.75255 -5.318,1.10374 -8.42853,1.10374"
           inkscape:connector-curvature="0" />
        <path
           id="path3880"
           style="font-weight:300;text-align:start;writing-mode:lr-tb;text-anchor:start;fill:url(#linearGradient4031);font-family:Aleo;-inkscape-font-specification:Aleo Light"
           d="m 927.79212,826.65242 -8.42853,0 0,1.95662 c 0,1.15391 0.65221,1.70578 1.95662,1.80612 0.15051,0 0.45153,0 0.95323,0 0.5017,0 1.25424,0.0502 2.25764,0.10034 0.95323,0 2.05696,0.0502 3.26104,0.10034 l 0,63.01332 c -1.20408,0.0502 -2.30781,0.10034 -3.26104,0.10034 -1.0034,0.0502 -1.75594,0.0502 -2.25764,0.10034 -0.5017,0 -0.80272,0 -0.95323,0 -1.30441,0.10034 -1.95662,0.65221 -1.95662,1.80611 l 0,1.95663 8.42853,0 42.54403,0 0,-4.26444 0,-10.43533 -2.45833,0 c -1.35458,0 -2.05696,0.85289 -2.1573,2.45832 0,0.20068 0,0.60204 -0.0502,1.30442 -0.0502,0.65221 -0.10034,1.70578 -0.15051,3.21087 -0.10034,1.45492 -0.15051,2.60883 -0.20068,3.46172 l -32.35955,0 0,-29.60021 28.24562,0 0,-4.16409 -28.24562,0 0,-28.64698 32.35955,0 c 0.25085,4.36477 0.35119,7.07394 0.40136,7.977 0.10034,1.60543 0.80272,2.45832 2.1573,2.45832 l 2.45833,0 0,-10.43532 0,-4.26444 -42.54403,0"
           inkscape:connector-curvature="0" />
        <path
           id="path3882"
           style="font-weight:300;text-align:start;writing-mode:lr-tb;text-anchor:start;fill:url(#linearGradient4033);font-family:Aleo;-inkscape-font-specification:Aleo Light"
           d="m 1022.2165,865.38354 0,2.80951 c 0,0.35119 0.1505,0.60204 0.4013,0.80272 0.2509,0.25084 0.5519,0.35118 0.9031,0.40135 l 13.6462,0 0,19.06454 c -1.5553,0.95323 -3.1106,1.75595 -4.6658,2.45833 -1.5553,0.70237 -3.2109,1.30441 -4.9167,1.80611 -1.7057,0.55187 -3.6122,0.90306 -5.619,1.15391 -1.9566,0.25085 -4.2143,0.35119 -6.6726,0.35119 -4.3647,0 -8.3783,-0.70238 -11.9906,-2.20748 -3.61219,-1.45492 -6.72273,-3.56206 -9.33155,-6.3214 -2.60883,-2.75934 -4.61563,-6.12072 -6.07056,-10.13431 -1.40475,-3.96341 -2.1573,-8.42853 -2.1573,-13.44551 0,-4.91664 0.75255,-9.38177 2.1573,-13.29501 1.40476,-3.96341 3.46173,-7.3248 6.07056,-10.03397 2.60882,-2.75934 5.76953,-4.86648 9.48205,-6.3214 3.7628,-1.50509 7.9269,-2.20747 12.4923,-2.20747 8.4286,0 15.1012,1.15391 20.0178,3.46172 0.3512,6.4719 0.5017,10.08414 0.5519,10.78651 0.05,1.60544 0.8027,2.40815 2.1573,2.40815 l 2.4583,0 0,-16.00417 c -3.1607,-1.40476 -7.2245,-2.60884 -12.1913,-3.61223 -4.9668,-1.0034 -9.2312,-1.45493 -12.8435,-1.45493 -5.4183,0 -10.3349,0.85289 -14.7499,2.55866 -4.41493,1.70578 -8.12751,4.1641 -11.23803,7.3248 -3.06036,3.1607 -5.41835,6.97361 -7.12412,11.43872 -1.6556,4.46512 -2.45832,9.43194 -2.45832,14.90045 0,5.51867 0.80272,10.4855 2.45832,14.95061 1.70577,4.51528 4.06376,8.3282 7.07395,11.48889 3.01019,3.1607 6.67259,5.61903 10.8869,7.3248 4.2142,1.70577 8.88,2.55866 13.9973,2.55866 3.0102,0 5.7194,-0.15051 8.2279,-0.5017 2.5587,-0.35118 4.8665,-0.85288 7.0238,-1.50509 2.2074,-0.65221 4.2644,-1.45493 6.1207,-2.45832 1.9064,-0.95323 3.7627,-2.05697 5.5187,-3.31121 l 0,-25.23543 -19.6164,0"
           inkscape:connector-curvature="0" />
        <path
           id="path3884"
           style="font-weight:300;text-align:start;writing-mode:lr-tb;text-anchor:start;fill:url(#linearGradient4035);font-family:Aleo;-inkscape-font-specification:Aleo Light"
           d="m 1118.3638,862.07233 c 0,-5.41834 -0.8529,-10.38516 -2.4583,-14.85028 -1.6556,-4.46511 -3.9634,-8.27802 -6.9234,-11.48889 -3.0102,-3.1607 -6.5723,-5.61902 -10.6862,-7.3248 -4.1641,-1.70577 -8.7797,-2.55866 -13.7967,-2.55866 -5.017,0 -9.5825,0.85289 -13.6964,2.60883 -4.1641,1.70578 -7.7261,4.1641 -10.6862,7.3248 -3.0102,3.1607 -5.318,6.97361 -6.9736,11.43872 -1.6556,4.46512 -2.4583,9.43194 -2.4583,14.90045 0,5.4685 0.8027,10.43533 2.4583,14.90044 1.6556,4.46511 3.9634,8.27803 6.9736,11.43872 2.9601,3.1607 6.5221,5.61903 10.6862,7.3248 4.1139,1.70577 8.6794,2.60883 13.6964,2.60883 5.017,0 9.6326,-0.90306 13.7967,-2.60883 4.1139,-1.70577 7.676,-4.1641 10.6862,-7.3248 2.96,-3.16069 5.2678,-6.97361 6.9234,-11.43872 1.6054,-4.46511 2.4082,-9.43194 2.4583,-14.95061 m -5.318,0.0502 c 0,4.96681 -0.7024,9.43193 -2.0569,13.34517 -1.4048,3.91325 -3.3113,7.27463 -5.8197,9.9838 -2.5085,2.75934 -5.4686,4.86648 -8.9804,6.3214 -3.5119,1.40476 -7.4252,2.15731 -11.6896,2.15731 -4.2143,0 -8.0774,-0.75255 -11.5893,-2.15731 -3.5118,-1.45492 -6.522,-3.56206 -9.0305,-6.3214 -2.5085,-2.70917 -4.4651,-6.07055 -5.8699,-9.9838 -1.4048,-3.91324 -2.057,-8.37836 -2.057,-13.39534 0,-4.91664 0.6522,-9.38177 2.057,-13.34518 1.4048,-3.91324 3.3614,-7.27463 5.8699,-10.03397 2.5085,-2.70917 5.5187,-4.81631 9.0305,-6.27123 3.5119,-1.45492 7.375,-2.20747 11.5893,-2.20747 4.2644,0 8.1777,0.75255 11.6896,2.20747 3.4617,1.45492 6.4719,3.56206 8.9804,6.27123 2.5084,2.75934 4.4149,6.12073 5.7695,10.03397 1.4047,3.96341 2.1071,8.42854 2.1071,13.39535"
           inkscape:connector-curvature="0" />
        <path
           id="path3886"
           style="font-weight:300;text-align:start;writing-mode:lr-tb;text-anchor:start;fill:url(#linearGradient4037);font-family:Aleo;-inkscape-font-specification:Aleo Light"
           d="m 1188.9403,826.65242 -4.5153,0 -8.6794,0 0,1.95662 c 0,1.15391 0.6522,1.70578 2.0068,1.80612 0.1505,0 0.4515,0 1.0034,0 0.5017,0.0502 1.3044,0.0502 2.3078,0.10034 1.0536,0 2.1573,0.0502 3.3614,0.10034 l 0,55.53801 c 0,0.95323 0.05,1.90646 0.1505,2.90985 l -45.9556,-61.45805 c -0.301,-0.40136 -0.602,-0.70238 -0.8529,-0.80272 -0.2508,-0.10034 -0.6522,-0.15051 -1.1037,-0.20068 l -2.5085,0 -8.4285,0 0,2.00679 c 0,1.15391 0.6522,1.70578 1.9566,1.80612 0.1505,0 0.4515,0 0.9532,0 0.5017,0 1.2543,0.0502 2.2577,0.10034 0.9532,0 2.0569,0.0502 3.261,0.10034 l 0,63.01332 c -1.2041,0.0502 -2.3078,0.10034 -3.261,0.10034 -1.0034,0.0502 -1.756,0.0502 -2.2577,0.10034 -0.5017,0 -0.8027,0 -0.9532,0 -1.3044,0.10034 -1.9566,0.65221 -1.9566,1.80611 l 0,1.95663 8.4285,0 4.4651,0 8.6794,0 0,-1.95663 c 0,-1.1539 -0.6522,-1.70577 -2.0068,-1.80611 -0.1505,0 -0.4515,0 -1.0034,0 -0.5519,-0.0502 -1.3044,-0.0502 -2.358,-0.10034 -1.0034,0 -2.1071,-0.0502 -3.3112,-0.10034 l 0,-55.7387 c 0,-0.90305 -0.05,-1.85628 -0.1505,-2.85968 l 46.1563,61.5584 c 0.4515,0.70238 1.1037,1.0034 1.8563,1.0034 l 2.4583,0 0,-66.97674 c 1.204,-0.0502 2.3078,-0.10034 3.261,-0.10034 1.0034,-0.0502 1.756,-0.0502 2.2577,-0.10034 0.4515,0 0.8027,0 0.9532,0 1.3044,-0.10034 1.9566,-0.65221 1.9566,-1.80612 l 0,-1.95662 -8.4285,0"
           inkscape:connector-curvature="0" />
      </g>
    </g>
    <flowRoot
       xml:space="preserve"
       id="flowRoot4041"
       style="fill:black;stroke:none;stroke-opacity:1;stroke-width:1px;stroke-linejoin:miter;stroke-linecap:butt;fill-opacity:1;font-family:Bree Serif;font-style:normal;font-weight:normal;font-size:48px;line-height:125%;letter-spacing:0px;word-spacing:0px;-inkscape-font-specification:Bree Serif;font-stretch:normal;font-variant:normal"><flowRegion
         id="flowRegion4043"><rect
           id="rect4045"
           width="471.42856"
           height="251.42857"
           x="122.85714"
           y="562.14288" /></flowRegion><flowPara
         id="flowPara4047"></flowPara></flowRoot>    <rect
       style="fill:none;fill-opacity:1;stroke:none"
       id="rect4053"
       width="491.42856"
       height="294.28571"
       x="114.28572"
       y="657.71692" />
    <path
       style="font-size:medium;font-style:normal;font-variant:normal;font-weight:normal;font-stretch:normal;text-indent:0;text-align:start;text-decoration:none;line-height:normal;letter-spacing:normal;word-spacing:normal;text-transform:none;direction:ltr;block-progression:tb;writing-mode:lr-tb;text-anchor:start;baseline-shift:baseline;color:#000000;fill:#191919;fill-opacity:1;stroke:none;stroke-width:27;marker:none;visibility:visible;display:inline;overflow:visible;enable-background:accumulate;font-family:Sans;-inkscape-font-specification:Sans"
       d="m 317.62665,794.48865 a 10.293906,10.293906 0 0 1 7.14784,17.67896 l -45.50786,45.50786 186.27248,0 a 10.293906,10.293906 0 0 1 9.69722,6.52835 10.293906,10.293906 0 0 1 0.33357,0.97688 10.293906,10.293906 0 0 1 0.21444,0.95303 10.293906,10.293906 0 0 1 0.0477,0.21444 10.293906,10.293906 0 0 1 0.0714,0.57183 10.293906,10.293906 0 0 1 0.0476,0.66713 10.293906,10.293906 0 0 1 0.0238,0.42887 10.293906,10.293906 0 0 1 -0.0238,0.42887 10.293906,10.293906 0 0 1 -0.0476,0.66713 10.293906,10.293906 0 0 1 -0.0714,0.57183 10.293906,10.293906 0 0 1 -0.0477,0.21444 10.293906,10.293906 0 0 1 -0.21444,0.95303 10.293906,10.293906 0 0 1 -0.33357,0.97688 10.293906,10.293906 0 0 1 -9.69722,6.52835 l -186.27248,0 45.50786,45.50786 a 10.293906,10.293906 0 0 1 -7.14784,17.67896 10.293906,10.293906 0 0 1 -7.38609,-3.12121 l -62.35291,-62.32909 a 10.293906,10.293906 0 0 1 -3.31183,-4.81288 10.293906,10.293906 0 0 1 -0.28591,-1.00069 10.293906,10.293906 0 0 1 -0.16678,-0.90539 10.293906,10.293906 0 0 1 -0.0238,-0.0953 10.293906,10.293906 0 0 1 0,-0.16678 10.293906,10.293906 0 0 1 -0.0476,-0.61948 10.293906,10.293906 0 0 1 -0.0238,-0.23826 10.293906,10.293906 0 0 1 0,-0.47652 10.293906,10.293906 0 0 1 0.0238,-0.23826 10.293906,10.293906 0 0 1 0.0476,-0.61948 10.293906,10.293906 0 0 1 0,-0.16678 10.293906,10.293906 0 0 1 0.0238,-0.0953 10.293906,10.293906 0 0 1 0.16678,-0.90539 10.293906,10.293906 0 0 1 0.28591,-1.00069 10.293906,10.293906 0 0 1 3.31183,-4.81288 l 62.35291,-62.32909 a 10.293906,10.293906 0 0 1 7.38609,-3.12121 z"
       id="path4845"
       inkscape:connector-curvature="0" />
    <path
       style="fill:none;stroke:#000000;stroke-width:1px;stroke-linecap:butt;stroke-linejoin:miter;stroke-opacity:1"
       d="m 9,22.5 -9,0 0,-22.5 22.5,0 0,9"
       id="path4887"
       inkscape:connector-curvature="0"
       transform="translate(0,107.35975)"
       sodipodi:nodetypes="ccccc" />
    <path
       style="fill:none;stroke:#000000;stroke-width:0.95744675px;stroke-linecap:butt;stroke-linejoin:miter;stroke-opacity:1"
       d="m 710.90425,129.38103 8.61703,0 0,-21.54256 -21.54256,0 0,8.61703"
       id="path4887-6"
       inkscape:connector-curvature="0"
       sodipodi:nodetypes="ccccc" />
    <path
       style="fill:none;stroke:#000000;stroke-width:0.95744675px;stroke-linecap:butt;stroke-linejoin:miter;stroke-opacity:1"
       d="m 710.90425,1030.3384 8.61703,0 0,21.5426 -21.54256,0 0,-8.6171"
       id="path4887-6-9"
       inkscape:connector-curvature="0"
       sodipodi:nodetypes="ccccc" />
    <path
       style="fill:none;stroke:#000000;stroke-width:0.95744675px;stroke-linecap:butt;stroke-linejoin:miter;stroke-opacity:1"
       d="m 9.0957534,1030.3384 -8.61703002,0 0,21.5426 21.54255962,0 0,-8.6171"
       id="path4887-6-0"
       inkscape:connector-curvature="0"
       sodipodi:nodetypes="ccccc" />
  </g>
  <g
     inkscape:groupmode="layer"
     id="layer2"
     inkscape:label="Text">
    <flowRoot
       transform="translate(0,-107.35975)"
       xml:space="preserve"
       style="font-size:72px;font-style:normal;font-variant:normal;font-weight:normal;font-stretch:normal;text-align:center;line-height:125%;letter-spacing:0px;word-spacing:0px;writing-mode:lr-tb;text-anchor:middle;fill:#191919;fill-opacity:1;stroke:none;font-family:Bree Serif;-inkscape-font-specification:Bree Serif"
       id="flowRoot4055"><flowRegion
         id="flowRegion4057"><use
           x="0"
           y="0"
           xlink:href="#rect4053"
           id="use4059"
           width="720"
           height="945" /></flowRegion><flowPara
         id="flowPara4061">RESTROOMS</flowPara></flowRoot>  </g>
</svg>
