<?xml version="1.0" encoding="utf-8"?>
<!-- Generator: Adobe Illustrator 15.1.0, SVG Export Plug-In . SVG Version: 6.00 Build 0)  -->
<!DOCTYPE svg PUBLIC "-//W3C//DTD SVG 1.1//EN" "http://www.w3.org/Graphics/SVG/1.1/DTD/svg11.dtd">
<svg version="1.1" id="Layer_1" xmlns="http://www.w3.org/2000/svg" xmlns:xlink="http://www.w3.org/1999/xlink" x="0px" y="0px"
	 width="1498.424px" height="249px" viewBox="0 0 1498.424 249" enable-background="new 0 0 1498.424 249" xml:space="preserve">
<rect x="-15.75" y="-15.543" fill="#152128" width="1529.923" height="280.086"/>
<g>
	<g>
		<g>
			<g>
				<path fill="#FDB913" d="M579.712,209.29l3.106-0.282c1.602-0.188,2.731-0.754,2.731-2.637v-43.786l-5.367-0.282v-8.004h26.93
					c13.842,0,22.316,6.591,22.316,19.209c0,14.313-10.169,21.469-24.388,21.469h-8.004v13.653l9.04,0.282v8.004h-26.365V209.29z
					 M603.818,185.844c8.191,0,13.747-2.825,13.747-11.206c0-9.699-5.556-11.205-14.783-11.205h-5.744v22.411H603.818z"/>
				<path fill="#FDB913" d="M633.042,209.29l3.106-0.282c1.602-0.188,2.731-0.754,2.731-2.637v-43.786l-5.367-0.282v-8.004h25.706
					c13.842,0,22.599,4.52,22.599,17.326c0,9.417-6.12,14.501-11.3,16.572c2.543,0.942,3.955,2.543,5.367,5.744l6.78,14.783
					l5.367,0.188v8.004h-23.258v-7.627l2.73-0.282c2.166-0.283,2.637-1.13,1.789-3.014l-4.426-9.416
					c-1.318-2.919-2.637-4.332-5.932-4.332h-8.569v16.385l6.121,0.282v8.004h-23.446V209.29z M658.56,183.301
					c8.004,0,11.582-3.672,11.582-10.358c0-8.475-4.896-9.51-12.9-9.51h-6.874v19.868H658.56z"/>
				<path fill="#FDB913" d="M712.295,162.491l-5.933-0.565v-7.627h21.563l19.209,54.332h0.094l5.367,0.282v8.004h-24.294v-7.627
					l3.578-0.282c1.978-0.188,2.919-0.754,2.26-2.825l-1.977-5.838h-22.034l-2.825,8.286l5.65,0.282v8.004h-21.752v-7.627
					l3.107-0.282c1.601-0.188,2.166-0.848,2.825-2.637L712.295,162.491z M712.389,191.682h17.515l-8.475-26.836h-0.283
					L712.389,191.682z"/>
				<path fill="#FDB913" d="M803.375,212.021c-5.179,3.578-12.9,6.026-21.657,6.026c-17.043,0-27.684-10.452-27.684-32.297
					c0-24.388,16.479-32.58,30.037-32.58c6.31,0,12.807,1.224,18.456,3.86v16.008l-9.604,0.659v-7.345
					c0-1.789-0.282-2.542-1.978-3.107c-1.789-0.565-4.237-0.753-6.968-0.753c-12.618,0-18.173,8.475-18.173,22.505
					c0,14.783,4.896,23.729,16.384,23.729c3.672,0,8.098-1.035,9.981-2.26v-14.03h-0.095l-7.25-0.282v-8.004h23.446v7.533
					l-2.166,0.188c-1.978,0.188-2.73,0.848-2.73,3.107V212.021z"/>
				<path fill="#FDB913" d="M827.326,196.578c0,9.228,4.802,11.958,12.335,11.958s12.241-3.766,12.241-11.487v-34.463l-5.462-0.282
					v-8.004h22.316v7.627l-3.106,0.283c-1.695,0.188-2.731,0.941-2.731,2.825v33.616c0,12.335-9.321,19.491-23.635,19.491
					c-15.442,0-23.352-6.214-23.352-20.998v-34.557l-5.462-0.282v-8.004h22.787v7.627l-3.107,0.283
					c-1.789,0.188-2.824,0.753-2.824,3.107V196.578z"/>
				<path fill="#FDB913" d="M873.235,216.917v-7.627l3.107-0.282c1.601-0.188,2.731-0.754,2.731-2.637v-43.786l-5.368-0.282v-8.004
					h43.127v15.631l-9.604,0.659v-3.767c0-1.789-0.188-2.919-2.731-2.919h-13.936v16.102h21.751v9.605h-21.751v17.608h15.16
					c2.448,0,2.637-1.131,2.637-3.014v-4.708l9.604,0.659v16.761H873.235z"/>
			</g>
		</g>
	</g>
	<g>
		<path fill="#E4E5E6" d="M359.841,39.155c-2.8,0.267-3.733,1.733-4.4,4.8l-16.8,72.666h-18.267l-14-59.333h-0.4l-13.6,59.333
			h-18.799l-18.4-76.932l-7.6-0.4V27.955h33.066v10.8l-4.4,0.4c-2.934,0.267-4.667,1.466-4,4.667l11.6,51.466h0.534l13.866-60.266
			h17.2l14.4,60.532h0.267l11.333-55.732l-7.2-0.533V27.955h30v10.8L359.841,39.155z"/>
		<path fill="#E4E5E6" d="M369.839,105.82l4.4-0.4c2.267-0.267,3.867-1.067,3.867-3.733V39.688l-7.6-0.4V27.955h36.399
			c19.6,0,32,6.4,32,24.533c0,13.333-8.667,20.533-16,23.466c3.6,1.333,5.6,3.6,7.6,8.133l9.6,20.933l7.6,0.267v11.333h-32.933
			v-10.8l3.867-0.4c3.066-0.4,3.733-1.6,2.533-4.267l-6.267-13.333c-1.867-4.133-3.733-6.133-8.4-6.133h-12.133v23.2l8.667,0.4
			v11.333h-33.2V105.82z M405.972,69.021c11.333,0,16.4-5.2,16.4-14.667c0-12-6.934-13.466-18.267-13.466h-9.733v28.133H405.972z"/>
		<path fill="#E4E5E6" d="M462.077,39.688l-7.6-0.4V27.955h32.266v10.8l-4.4,0.4c-2.267,0.267-3.866,1.066-3.866,4.267v61.466
			l7.6,0.4v11.333H453.81v-10.8l4.4-0.4c2.533-0.267,3.867-1.067,3.867-4.4V39.688z"/>
		<path fill="#E4E5E6" d="M519.754,41.155h-10.4c-2.8,0-3.067,1.866-3.067,4.133v6.266l-13.6-0.933V27.955h69.732v22.667
			l-13.6,0.933v-6.266c0-2.534-0.267-4.133-3.867-4.133h-9.066v63.732l10.533,0.4v11.333h-37.6v-10.8l7.067-0.4
			c2.533-0.267,3.867-1.067,3.867-3.733V41.155z"/>
		<path fill="#E4E5E6" d="M568.512,116.62v-10.8l4.4-0.4c2.267-0.267,3.867-1.067,3.867-3.733V39.688l-7.6-0.4V27.955h61.066v22.133
			l-13.6,0.933v-5.333c0-2.533-0.267-4.133-3.867-4.133h-19.732v22.799h30.8v13.6h-30.8v24.933h21.466
			c3.467,0,3.733-1.6,3.733-4.267v-6.667l13.6,0.934v23.733H568.512z"/>
		<path fill="#E4E5E6" d="M692.909,41.155h-10.4c-2.8,0-3.066,1.866-3.066,4.133v6.266l-13.6-0.933V27.955h69.732v22.667
			l-13.6,0.933v-6.266c0-2.534-0.267-4.133-3.867-4.133h-9.066v63.732l10.533,0.4v11.333h-37.6v-10.8l7.066-0.4
			c2.533-0.267,3.867-1.067,3.867-3.733V41.155z"/>
		<path fill="#E4E5E6" d="M803.813,77.954h-37.732v26.933l7.733,0.4v11.333h-32.267v-10.8l4.4-0.4
			c2.267-0.267,3.866-1.067,3.866-3.733V39.688l-7.6-0.4V27.955h32.266v10.8l-4.399,0.4c-2.533,0.267-4,1.066-4,4.4v20.666h37.732
			V39.688l-7.6-0.4V27.955h32.266v10.8l-4.399,0.4c-2.267,0.267-3.867,1.066-3.867,4.267v61.466l7.601,0.4v11.333h-32.267v-10.8
			l4.4-0.4c2.533-0.267,3.866-1.067,3.866-4.4V77.954z"/>
		<path fill="#E4E5E6" d="M835.423,116.62v-10.8l4.4-0.4c2.267-0.267,3.866-1.067,3.866-3.733V39.688l-7.6-0.4V27.955h61.065v22.133
			l-13.6,0.933v-5.333c0-2.533-0.267-4.133-3.867-4.133h-19.732v22.799h30.8v13.6h-30.8v24.933h21.466
			c3.467,0,3.733-1.6,3.733-4.267v-6.667l13.6,0.934v23.733H835.423z"/>
		<path fill="#E4E5E6" d="M935.288,105.82l4.4-0.4c2.267-0.267,3.866-1.067,3.866-3.733V39.688l-7.6-0.4V27.955h36.532
			c25.467,0,41.6,13.467,41.6,41.2c0,34.933-19.467,47.466-40.933,47.466h-37.866V105.82z M959.821,103.82h13.6
			c14.934,0,24.267-10.933,24.267-32.266c0-24-11.601-30.666-26-30.666h-11.866V103.82z"/>
		<path fill="#E4E5E6" d="M1061.137,118.354c-23.732,0-38.666-15.466-38.666-45.866c0-34.133,21.467-46.132,40.133-46.132
			c19.866,0,37.732,12.266,37.732,46.132C1100.336,103.021,1084.47,118.354,1061.137,118.354z M1062.071,104.887
			c16.934,0,21.733-16,21.733-32c0-13.6-3.601-32.799-22-32.799c-17.066,0-22.666,15.867-22.666,31.733
			C1039.138,87.021,1042.872,104.887,1062.071,104.887z"/>
		<path fill="#E4E5E6" d="M1150.587,39.555c-16.8,0-25.199,12-25.199,32.133c0,20.933,6.933,33.866,25.466,33.466
			c3.733,0,7.2-0.4,9.733-1.2c2.399-0.8,2.8-1.867,2.8-4.4V88.887l13.6,0.933v23.066c-7.333,3.867-17.866,5.467-26.399,5.467
			c-27.066,0-41.866-15.2-41.866-45.6c0-34.799,21.333-46.399,41.866-46.399c7.866,0,17.066,1.733,25.066,5.466v22.667l-13.6,0.933
			v-10.4c0-2.533-0.4-3.6-2.8-4.4C1156.721,39.821,1153.254,39.555,1150.587,39.555z"/>
		<path fill="#E4E5E6" d="M1230.051,91.82c0-8.4-7.6-10.8-16.934-13.333c-13.199-3.6-25.466-8.933-25.466-26
			c0-16.267,12.533-26.133,30.933-26.133c8.8,0,17.066,1.733,25.066,5.466v20l-13.6,0.933v-7.733c0-2.533-0.4-3.6-2.8-4.4
			c-2.533-0.8-6-1.066-8.667-1.066c-7.866,0-14,3.2-14,11.466s7.733,10.533,17.733,13.6c12.133,3.866,24.933,9.333,24.933,26.533
			c0,17.6-13.866,27.2-32.266,27.2c-10.667,0-18.934-1.733-26.934-5.467V91.82l13.601-0.933v8.133c0,2.533,0.399,3.6,2.8,4.4
			c2.533,0.8,6,1.2,9.6,1.2C1222.851,104.62,1230.051,101.82,1230.051,91.82z"/>
	</g>
</g>
</svg>
